<svg width="288" height="165" viewBox="0 0 288 165" fill="none" xmlns="http://www.w3.org/2000/svg">
<path d="M144.492 7.57324C185.75 7.57324 219.195 41.019 219.195 82.2764C219.195 123.534 185.75 156.979 144.492 156.979C123.916 156.429 111.79 152.386 95.2082 138.825" stroke="#C1181B" stroke-width="15" stroke-linecap="round" stroke-linejoin="round"/>
<path d="M219.195 82.2764C219.195 41.019 185.75 7.57324 144.492 7.57324" stroke="#FF5900" stroke-width="15" stroke-linecap="round" stroke-linejoin="round"/>
<path d="M144.492 7.57324C160.389 7.57324 175.127 12.5391 187.238 21.0042" stroke="#FABB34" stroke-width="15" stroke-linecap="round" stroke-linejoin="round"/>
<path d="M144.444 33.6641C171.39 33.6641 193.234 55.5083 193.234 82.4546C193.234 109.401 171.39 131.245 144.444 131.245C129.038 130.833 120.885 127.423 107.285 115.085" stroke="#C1181B" stroke-width="15" stroke-linecap="round" stroke-linejoin="round"/>
<path d="M193.234 82.4546C193.234 55.5083 171.39 33.6641 144.444 33.6641" stroke="#FF5900" stroke-width="15" stroke-linecap="round" stroke-linejoin="round"/>
<path d="M144.442 33.6641C152.17 33.6641 159.479 35.4608 165.973 38.6593" stroke="#FABB34" stroke-width="15" stroke-linecap="round" stroke-linejoin="round"/>
<path d="M103.715 117.641L104.174 117.009L105.67 118.095L109.216 113.214L107.019 113.094L107.592 112.306L109.798 112.339L110.608 112.927L106.444 118.658L107.899 119.715L107.44 120.347L103.715 117.641ZM108.35 121.008L108.582 120.688L112.454 120.074C112.664 120.041 112.845 120.011 112.995 119.985C113.148 119.955 113.281 119.929 113.392 119.906C113.506 119.88 113.605 119.854 113.687 119.828C113.773 119.804 113.854 119.779 113.931 119.754C114.187 119.658 114.418 119.539 114.627 119.396C114.838 119.255 115.026 119.071 115.189 118.846C115.463 118.469 115.569 118.111 115.507 117.772C115.451 117.432 115.239 117.128 114.871 116.861C114.66 116.708 114.447 116.611 114.231 116.572C114.02 116.532 113.808 116.533 113.597 116.574C113.388 116.612 113.181 116.685 112.978 116.79C112.777 116.898 112.584 117.026 112.4 117.173L111.992 116.482C112.242 116.287 112.505 116.127 112.782 116.002C113.059 115.877 113.34 115.798 113.627 115.766C113.913 115.734 114.2 115.754 114.487 115.827C114.774 115.899 115.054 116.035 115.327 116.233C115.603 116.434 115.83 116.658 116.008 116.905C116.189 117.154 116.313 117.418 116.378 117.697C116.442 117.97 116.443 118.252 116.382 118.543C116.322 118.83 116.191 119.114 115.989 119.393C115.81 119.639 115.605 119.843 115.373 120.006C115.142 120.169 114.895 120.302 114.633 120.407C114.375 120.513 114.106 120.596 113.826 120.656C113.547 120.716 113.27 120.767 112.996 120.808L110.046 121.275L113.071 123.473L112.612 124.105L108.35 121.008ZM115.6 123.516C115.521 123.744 115.473 123.972 115.457 124.2C115.445 124.427 115.467 124.645 115.52 124.851C115.572 125.061 115.652 125.253 115.761 125.427C115.875 125.601 116.017 125.749 116.186 125.872C116.406 126.032 116.627 126.147 116.851 126.22C117.075 126.292 117.293 126.32 117.503 126.305C117.708 126.291 117.901 126.234 118.082 126.135C118.266 126.037 118.424 125.898 118.556 125.717C118.689 125.533 118.772 125.338 118.805 125.13C118.838 124.923 118.826 124.715 118.769 124.506C118.707 124.298 118.602 124.094 118.452 123.895C118.304 123.692 118.115 123.507 117.884 123.339L117.63 123.155L118.102 122.505L118.356 122.689C118.563 122.84 118.772 122.952 118.983 123.023C119.197 123.097 119.401 123.132 119.594 123.127C119.785 123.121 119.963 123.075 120.128 122.992C120.296 122.91 120.438 122.789 120.555 122.629C120.671 122.468 120.749 122.303 120.787 122.131C120.826 121.96 120.829 121.792 120.798 121.629C120.766 121.461 120.699 121.301 120.596 121.149C120.496 120.995 120.361 120.856 120.192 120.733C120.023 120.61 119.839 120.52 119.641 120.462C119.445 120.401 119.246 120.372 119.044 120.375C118.84 120.381 118.639 120.416 118.439 120.479C118.242 120.544 118.056 120.641 117.882 120.768L117.489 120.102C117.716 119.927 117.963 119.796 118.23 119.709C118.499 119.619 118.772 119.575 119.048 119.576C119.325 119.573 119.6 119.617 119.871 119.705C120.148 119.792 120.407 119.925 120.651 120.101C120.93 120.304 121.154 120.531 121.326 120.782C121.502 121.032 121.619 121.292 121.677 121.561C121.736 121.83 121.735 122.102 121.676 122.376C121.623 122.65 121.505 122.911 121.324 123.16C121.219 123.306 121.089 123.431 120.935 123.537C120.781 123.643 120.614 123.723 120.434 123.778C120.253 123.833 120.064 123.863 119.865 123.868C119.672 123.872 119.476 123.848 119.279 123.795C119.428 123.976 119.541 124.171 119.616 124.38C119.694 124.591 119.737 124.806 119.745 125.025C119.749 125.245 119.717 125.462 119.652 125.678C119.586 125.893 119.483 126.097 119.343 126.29C119.145 126.562 118.908 126.773 118.632 126.922C118.362 127.07 118.069 127.154 117.755 127.175C117.437 127.194 117.108 127.149 116.765 127.04C116.427 126.931 116.092 126.756 115.76 126.514C115.499 126.325 115.279 126.106 115.101 125.859C114.928 125.611 114.798 125.346 114.712 125.066C114.628 124.788 114.591 124.5 114.598 124.202C114.609 123.906 114.672 123.617 114.788 123.333L115.6 123.516Z" fill="white"/>
<path d="M91.0697 140.169L91.3024 139.849L95.1744 139.235C95.3844 139.202 95.5647 139.172 95.7154 139.146C95.8682 139.116 96.0006 139.09 96.1124 139.067C96.2265 139.041 96.3247 139.015 96.4072 138.989C96.4926 138.965 96.574 138.94 96.6514 138.915C96.9066 138.819 97.1384 138.7 97.3467 138.557C97.558 138.416 97.7456 138.232 97.9093 138.007C98.1831 137.63 98.2891 137.272 98.2275 136.933C98.171 136.593 97.9588 136.289 97.591 136.022C97.3804 135.869 97.1669 135.772 96.9507 135.733C96.7396 135.693 96.5284 135.694 96.3171 135.735C96.1079 135.773 95.9014 135.846 95.6977 135.951C95.4969 136.059 95.3045 136.187 95.1204 136.334L94.7117 135.643C94.9618 135.448 95.2252 135.289 95.502 135.163C95.7788 135.038 96.0603 134.959 96.3466 134.927C96.6329 134.895 96.9196 134.915 97.2067 134.988C97.4939 135.06 97.7739 135.196 98.0468 135.394C98.3227 135.595 98.5498 135.819 98.7281 136.066C98.9094 136.315 99.0325 136.579 99.0976 136.858C99.1619 137.131 99.1633 137.413 99.1017 137.704C99.0422 137.992 98.9112 138.275 98.7086 138.554C98.5298 138.8 98.3246 139.004 98.0931 139.167C97.8616 139.33 97.615 139.463 97.3533 139.568C97.0945 139.674 96.8255 139.758 96.5463 139.817C96.267 139.877 95.9902 139.928 95.7158 139.969L92.7657 140.436L95.7915 142.634L95.3324 143.266L91.0697 140.169ZM96.3536 144.008L96.5863 143.688L100.458 143.074C100.668 143.041 100.849 143.011 100.999 142.985C101.152 142.955 101.284 142.929 101.396 142.906C101.51 142.88 101.609 142.854 101.691 142.828C101.777 142.804 101.858 142.779 101.935 142.754C102.191 142.658 102.422 142.539 102.631 142.396C102.842 142.255 103.029 142.071 103.193 141.846C103.467 141.469 103.573 141.111 103.511 140.772C103.455 140.432 103.243 140.128 102.875 139.861C102.664 139.708 102.451 139.611 102.235 139.572C102.024 139.532 101.812 139.533 101.601 139.574C101.392 139.612 101.185 139.685 100.982 139.79C100.781 139.898 100.588 140.026 100.404 140.173L99.9956 139.482C100.246 139.287 100.509 139.127 100.786 139.002C101.063 138.877 101.344 138.798 101.631 138.766C101.917 138.734 102.203 138.754 102.491 138.827C102.778 138.899 103.058 139.035 103.331 139.233C103.607 139.434 103.834 139.658 104.012 139.905C104.193 140.154 104.316 140.418 104.382 140.697C104.446 140.97 104.447 141.252 104.386 141.543C104.326 141.83 104.195 142.114 103.993 142.393C103.814 142.639 103.608 142.843 103.377 143.006C103.145 143.169 102.899 143.302 102.637 143.407C102.378 143.513 102.109 143.596 101.83 143.656C101.551 143.716 101.274 143.767 101 143.808L98.0496 144.275L101.075 146.473L100.616 147.105L96.3536 144.008ZM103.604 146.516C103.525 146.744 103.477 146.972 103.46 147.2C103.449 147.427 103.471 147.645 103.524 147.851C103.576 148.061 103.656 148.253 103.765 148.427C103.879 148.601 104.021 148.749 104.19 148.872C104.409 149.032 104.631 149.147 104.855 149.22C105.079 149.292 105.296 149.32 105.507 149.305C105.712 149.291 105.905 149.234 106.086 149.135C106.27 149.037 106.428 148.898 106.559 148.717C106.693 148.533 106.776 148.338 106.809 148.13C106.842 147.923 106.83 147.715 106.773 147.506C106.711 147.298 106.606 147.094 106.456 146.895C106.308 146.692 106.119 146.507 105.887 146.339L105.634 146.155L106.106 145.505L106.359 145.689C106.567 145.84 106.776 145.952 106.987 146.023C107.201 146.097 107.405 146.132 107.598 146.127C107.789 146.121 107.967 146.075 108.132 145.992C108.3 145.91 108.442 145.789 108.559 145.629C108.675 145.468 108.753 145.303 108.791 145.131C108.83 144.96 108.833 144.792 108.802 144.629C108.77 144.461 108.703 144.301 108.6 144.149C108.5 143.995 108.365 143.856 108.196 143.733C108.026 143.61 107.843 143.52 107.645 143.462C107.449 143.401 107.25 143.372 107.048 143.375C106.844 143.381 106.643 143.416 106.443 143.479C106.245 143.544 106.06 143.641 105.886 143.768L105.493 143.102C105.72 142.927 105.967 142.796 106.234 142.709C106.503 142.619 106.776 142.575 107.051 142.576C107.329 142.573 107.604 142.617 107.875 142.705C108.152 142.792 108.411 142.925 108.655 143.101C108.933 143.304 109.158 143.531 109.329 143.782C109.506 144.032 109.623 144.292 109.681 144.561C109.74 144.83 109.739 145.102 109.68 145.376C109.627 145.65 109.509 145.911 109.328 146.16C109.223 146.306 109.093 146.431 108.939 146.537C108.785 146.643 108.618 146.723 108.438 146.778C108.257 146.833 108.068 146.863 107.869 146.868C107.676 146.872 107.48 146.848 107.283 146.795C107.432 146.976 107.544 147.171 107.619 147.38C107.697 147.591 107.741 147.806 107.749 148.025C107.753 148.245 107.721 148.462 107.656 148.678C107.59 148.893 107.487 149.097 107.347 149.29C107.149 149.562 106.912 149.773 106.636 149.922C106.365 150.07 106.073 150.154 105.759 150.175C105.441 150.194 105.111 150.149 104.769 150.04C104.431 149.931 104.096 149.756 103.764 149.514C103.503 149.325 103.283 149.106 103.105 148.859C102.932 148.611 102.802 148.346 102.716 148.066C102.632 147.788 102.594 147.5 102.602 147.202C102.613 146.906 102.676 146.617 102.792 146.333L103.604 146.516Z" fill="white"/>
<path d="M193.908 75.9026C194.066 75.9686 194.211 76.0658 194.343 76.1941C194.475 76.3261 194.586 76.4801 194.678 76.6561C194.773 76.8358 194.847 77.0319 194.898 77.2446C194.949 77.4573 194.975 77.6809 194.975 77.9156C194.975 78.2969 194.911 78.6453 194.783 78.9606C194.654 79.2796 194.475 79.5528 194.244 79.7801C194.016 80.0074 193.741 80.1834 193.419 80.3081C193.096 80.4364 192.74 80.5006 192.352 80.5006C191.97 80.5006 191.62 80.4346 191.301 80.3026C190.986 80.1706 190.716 79.9836 190.493 79.7416C190.265 79.5033 190.087 79.2173 189.959 78.8836C189.834 78.5499 189.772 78.1833 189.772 77.7836C189.772 77.3619 189.838 76.9769 189.97 76.6286C190.102 76.2839 190.287 75.9869 190.526 75.7376C190.764 75.4883 191.05 75.2939 191.384 75.1546C191.717 75.0189 192.086 74.9511 192.489 74.9511L194.777 74.9511C195.232 74.9511 195.646 75.0244 196.02 75.1711C196.394 75.3214 196.717 75.5323 196.988 75.8036C197.256 76.0749 197.463 76.3976 197.61 76.7716C197.76 77.1493 197.835 77.5654 197.835 78.0201C197.835 78.2731 197.797 78.5188 197.72 78.7571C197.646 78.9991 197.542 79.2228 197.406 79.4281C197.27 79.6371 197.107 79.8223 196.917 79.9836C196.73 80.1486 196.522 80.2788 196.295 80.3741L195.932 79.5381C196.097 79.4758 196.247 79.3914 196.383 79.2851C196.522 79.1788 196.642 79.0541 196.741 78.9111C196.84 78.7681 196.917 78.6123 196.972 78.4436C197.027 78.2786 197.054 78.1081 197.054 77.9321C197.054 77.6314 196.997 77.3564 196.884 77.1071C196.774 76.8578 196.62 76.6433 196.422 76.4636C196.22 76.2876 195.98 76.1501 195.701 76.0511C195.422 75.9521 195.114 75.9026 194.777 75.9026L193.908 75.9026ZM191.043 76.4581C190.878 76.6158 190.749 76.8046 190.658 77.0246C190.566 77.2446 190.52 77.4866 190.52 77.7506C190.52 78.0109 190.566 78.2493 190.658 78.4656C190.749 78.6819 190.878 78.8689 191.043 79.0266C191.208 79.1806 191.404 79.2998 191.631 79.3841C191.862 79.4721 192.117 79.5161 192.396 79.5161C192.667 79.5161 192.913 79.4739 193.133 79.3896C193.356 79.3053 193.547 79.1879 193.705 79.0376C193.862 78.8873 193.983 78.7058 194.068 78.4931C194.156 78.2804 194.2 78.0458 194.2 77.7891C194.2 77.5214 194.156 77.2739 194.068 77.0466C193.983 76.8229 193.862 76.6323 193.705 76.4746C193.547 76.3133 193.356 76.1868 193.133 76.0951C192.913 76.0071 192.667 75.9631 192.396 75.9631C192.117 75.9631 191.862 76.0071 191.631 76.0951C191.404 76.1831 191.208 76.3041 191.043 76.4581ZM192.104 82.1644C191.873 82.234 191.66 82.3294 191.466 82.4504C191.275 82.575 191.112 82.7199 190.977 82.8849C190.837 83.0499 190.729 83.2277 190.652 83.4184C190.579 83.6127 190.542 83.8144 190.542 84.0234C190.542 84.2947 190.579 84.5422 190.652 84.7659C190.725 84.9895 190.83 85.182 190.966 85.3434C191.098 85.501 191.257 85.6239 191.444 85.7119C191.631 85.8035 191.836 85.8494 192.06 85.8494C192.287 85.8494 192.495 85.8017 192.682 85.7064C192.869 85.611 193.03 85.479 193.166 85.3104C193.298 85.138 193.4 84.9327 193.474 84.6944C193.551 84.456 193.589 84.1939 193.589 83.9079L193.589 83.5944L194.392 83.5944L194.392 83.9079C194.392 84.1645 194.425 84.3992 194.491 84.6119C194.557 84.8282 194.649 85.0134 194.766 85.1674C194.883 85.3177 195.025 85.435 195.19 85.5194C195.355 85.6074 195.536 85.6514 195.734 85.6514C195.932 85.6514 196.112 85.6165 196.273 85.5469C196.434 85.4772 196.572 85.3819 196.686 85.2609C196.803 85.1362 196.893 84.9877 196.955 84.8154C197.021 84.643 197.054 84.4524 197.054 84.2434C197.054 84.0344 197.019 83.8327 196.95 83.6384C196.884 83.444 196.79 83.2662 196.669 83.1049C196.544 82.9435 196.398 82.8005 196.229 82.6759C196.06 82.5549 195.873 82.4614 195.668 82.3954L195.976 81.6859C196.251 81.7665 196.502 81.8894 196.73 82.0544C196.961 82.2194 197.157 82.4137 197.318 82.6374C197.483 82.861 197.61 83.1085 197.698 83.3799C197.789 83.6549 197.835 83.9427 197.835 84.2434C197.835 84.588 197.784 84.9034 197.681 85.1894C197.582 85.479 197.441 85.7265 197.258 85.9319C197.074 86.1372 196.854 86.2967 196.598 86.4104C196.345 86.5277 196.064 86.5864 195.756 86.5864C195.576 86.5864 195.399 86.5552 195.223 86.4929C195.047 86.4305 194.883 86.3425 194.733 86.2289C194.583 86.1152 194.447 85.9795 194.326 85.8219C194.209 85.6679 194.113 85.4955 194.04 85.3049C193.981 85.5322 193.89 85.7375 193.765 85.9209C193.64 86.1079 193.492 86.2692 193.32 86.4049C193.144 86.5369 192.949 86.6395 192.737 86.7129C192.524 86.7862 192.298 86.8229 192.06 86.8229C191.723 86.8229 191.413 86.755 191.131 86.6194C190.852 86.4874 190.612 86.3004 190.41 86.0584C190.208 85.8127 190.051 85.5194 189.937 85.1784C189.827 84.841 189.772 84.467 189.772 84.0564C189.772 83.7337 189.82 83.4275 189.915 83.1379C190.014 82.8519 190.152 82.5915 190.328 82.3569C190.504 82.1259 190.714 81.926 190.96 81.7574C191.206 81.5924 191.477 81.4732 191.774 81.3999L192.104 82.1644Z" fill="white"/>
<path d="M215.535 69.0036L216.316 69.0036L216.316 70.8516L222.35 70.8516L221.156 69.0036L222.13 69.0036L223.4 70.8076L223.4 71.8086L216.316 71.8086L216.316 73.6071L215.535 73.6071L215.535 69.0036ZM217.62 75.6448C217.136 75.7658 216.78 75.9693 216.553 76.2553C216.325 76.5413 216.212 76.9337 216.212 77.4323C216.212 77.7147 216.259 77.9622 216.355 78.1748C216.454 78.3912 216.587 78.5727 216.756 78.7193C216.925 78.8623 217.123 78.9705 217.35 79.0438C217.581 79.1172 217.829 79.1538 218.093 79.1538C218.353 79.1538 218.595 79.119 218.819 79.0493C219.042 78.9797 219.238 78.8752 219.407 78.7358C219.572 78.5965 219.702 78.4242 219.798 78.2188C219.897 78.0135 219.946 77.7752 219.946 77.5038C219.946 77.1408 219.889 76.8108 219.776 76.5138C219.666 76.2168 219.469 75.9455 219.187 75.6998L219.187 75.2928L223.4 75.2928L223.4 79.7203L222.575 79.7203L222.575 76.0903L220.177 76.0903C220.379 76.3067 220.518 76.5523 220.595 76.8273C220.676 77.106 220.716 77.3828 220.716 77.6578C220.716 78.0465 220.648 78.3948 220.513 78.7028C220.381 79.0108 220.199 79.2693 219.968 79.4783C219.737 79.691 219.464 79.8523 219.149 79.9623C218.837 80.076 218.503 80.1328 218.148 80.1328C217.748 80.1328 217.381 80.065 217.048 79.9293C216.718 79.7973 216.433 79.6103 216.195 79.3683C215.957 79.13 215.77 78.8458 215.634 78.5158C215.502 78.1895 215.436 77.832 215.436 77.4433C215.436 77.128 215.473 76.8292 215.546 76.5468C215.619 76.2682 215.731 76.0152 215.882 75.7878C216.036 75.5605 216.23 75.368 216.465 75.2103C216.699 75.0527 216.978 74.9427 217.301 74.8803L217.62 75.6448ZM217.768 82.0716C217.537 82.1412 217.324 82.2366 217.13 82.3576C216.939 82.4822 216.776 82.6271 216.641 82.7921C216.501 82.9571 216.393 83.1349 216.316 83.3256C216.243 83.5199 216.206 83.7216 216.206 83.9306C216.206 84.2019 216.243 84.4494 216.316 84.6731C216.389 84.8967 216.494 85.0892 216.63 85.2506C216.762 85.4082 216.921 85.5311 217.108 85.6191C217.295 85.7107 217.5 85.7566 217.724 85.7566C217.951 85.7566 218.159 85.7089 218.346 85.6136C218.533 85.5182 218.694 85.3862 218.83 85.2176C218.962 85.0452 219.064 84.8399 219.138 84.6016C219.215 84.3632 219.253 84.1011 219.253 83.8151L219.253 83.5016L220.056 83.5016L220.056 83.8151C220.056 84.0717 220.089 84.3064 220.155 84.5191C220.221 84.7354 220.313 84.9206 220.43 85.0746C220.547 85.2249 220.689 85.3422 220.854 85.4266C221.019 85.5146 221.2 85.5586 221.398 85.5586C221.596 85.5586 221.776 85.5237 221.937 85.4541C222.098 85.3844 222.236 85.2891 222.35 85.1681C222.467 85.0434 222.557 84.8949 222.619 84.7226C222.685 84.5502 222.718 84.3596 222.718 84.1506C222.718 83.9416 222.683 83.7399 222.614 83.5456C222.548 83.3512 222.454 83.1734 222.333 83.0121C222.208 82.8507 222.062 82.7077 221.893 82.5831C221.724 82.4621 221.537 82.3686 221.332 82.3026L221.64 81.5931C221.915 81.6737 222.166 81.7966 222.394 81.9616C222.625 82.1266 222.821 82.3209 222.982 82.5446C223.147 82.7682 223.274 83.0157 223.362 83.2871C223.453 83.5621 223.499 83.8499 223.499 84.1506C223.499 84.4952 223.448 84.8106 223.345 85.0966C223.246 85.3862 223.105 85.6337 222.922 85.8391C222.738 86.0444 222.518 86.2039 222.262 86.3176C222.009 86.4349 221.728 86.4936 221.42 86.4936C221.24 86.4936 221.063 86.4624 220.887 86.4001C220.711 86.3377 220.547 86.2497 220.397 86.1361C220.247 86.0224 220.111 85.8867 219.99 85.7291C219.873 85.5751 219.777 85.4027 219.704 85.2121C219.645 85.4394 219.554 85.6447 219.429 85.8281C219.304 86.0151 219.156 86.1764 218.984 86.3121C218.808 86.4441 218.613 86.5467 218.401 86.6201C218.188 86.6934 217.962 86.7301 217.724 86.7301C217.387 86.7301 217.077 86.6622 216.795 86.5266C216.516 86.3946 216.276 86.2076 216.074 85.9656C215.872 85.7199 215.715 85.4266 215.601 85.0856C215.491 84.7482 215.436 84.3742 215.436 83.9636C215.436 83.6409 215.484 83.3347 215.579 83.0451C215.678 82.7591 215.816 82.4987 215.992 82.2641C216.168 82.0331 216.378 81.8332 216.624 81.6646C216.87 81.4996 217.141 81.3804 217.438 81.3071L217.768 82.0716Z" fill="white"/>
<path d="M179.055 19.5841L179.486 18.9327L181.027 19.9523L184.356 14.9203L182.156 14.896L182.693 14.0841L184.899 14.0198L185.734 14.5721L181.825 20.4803L183.325 21.4726L182.894 22.124L179.055 19.5841ZM184.992 22.4369C184.977 22.0617 185.038 21.6801 185.176 21.2921C185.314 20.9042 185.504 20.5267 185.747 20.1597L186.505 19.013C186.748 18.646 187.022 18.3191 187.326 18.0322C187.63 17.7454 187.956 17.5307 188.306 17.3881C188.658 17.2475 189.03 17.1943 189.42 17.2285C189.814 17.2647 190.22 17.4214 190.639 17.6986C191.049 17.9697 191.345 18.2732 191.527 18.6092C191.713 18.9472 191.808 19.3007 191.815 19.6698C191.823 20.0359 191.755 20.4109 191.611 20.7948C191.47 21.1807 191.279 21.5557 191.039 21.9196L190.25 23.1122C190.009 23.4761 189.739 23.801 189.44 24.0868C189.144 24.3746 188.827 24.5888 188.488 24.7293C188.143 24.8709 187.78 24.9251 187.397 24.8919C187.015 24.8587 186.616 24.7045 186.2 24.4294C185.79 24.1583 185.489 23.8517 185.298 23.5097C185.11 23.1697 185.008 22.8121 184.992 22.4369ZM185.873 22.301C185.849 22.5706 185.892 22.8318 186.001 23.0846C186.113 23.3344 186.325 23.5625 186.637 23.7688C186.958 23.9812 187.254 24.0849 187.526 24.0799C187.797 24.0749 188.048 24.0012 188.278 23.8591C188.509 23.7169 188.719 23.5285 188.91 23.2939C189.105 23.0583 189.285 22.8167 189.448 22.569L190.237 21.3763C190.395 21.1378 190.538 20.8825 190.665 20.6106C190.794 20.3355 190.873 20.0627 190.903 19.7921C190.932 19.5164 190.893 19.2516 190.789 18.9977C190.687 18.7459 190.484 18.5188 190.178 18.3165C189.872 18.1142 189.581 18.0161 189.304 18.0222C189.031 18.0302 188.775 18.1049 188.536 18.2461C188.298 18.3873 188.075 18.5742 187.868 18.8068C187.665 19.0414 187.48 19.2841 187.314 19.5348L186.556 20.6816C186.386 20.9385 186.236 21.2045 186.107 21.4795C185.978 21.7545 185.9 22.0284 185.873 22.301Z" fill="white"/>
<path d="M166.116 38.4918C165.877 38.1621 165.744 37.828 165.718 37.4895C165.693 37.1479 165.788 36.815 166.002 36.4908C166.184 36.2156 166.406 36.0104 166.667 35.8752C166.93 35.737 167.207 35.6567 167.499 35.6343C167.791 35.6119 168.081 35.6414 168.37 35.7227C168.664 35.803 168.932 35.9231 169.174 36.0829C169.415 36.2427 169.63 36.4398 169.818 36.674C170.006 36.9083 170.148 37.1625 170.243 37.4368C170.336 37.709 170.372 37.99 170.352 38.2799C170.331 38.5698 170.233 38.8478 170.057 39.1139C169.946 39.2821 169.819 39.4203 169.677 39.5286C169.537 39.6339 169.385 39.7137 169.222 39.7682C169.055 39.8207 168.88 39.8498 168.696 39.8555C168.515 39.8633 168.328 39.8497 168.136 39.8148C168.434 40.2144 168.602 40.6287 168.639 41.0577C168.679 41.4888 168.562 41.9123 168.287 42.3282C168.08 42.6401 167.834 42.8769 167.546 43.0386C167.259 43.2003 166.954 43.2955 166.632 43.3241C166.313 43.3547 165.988 43.3243 165.657 43.233C165.329 43.1436 165.022 43.0039 164.734 42.8137C164.447 42.6235 164.195 42.3956 163.98 42.1299C163.764 41.8643 163.607 41.5775 163.507 41.2697C163.402 40.963 163.365 40.6463 163.397 40.3198C163.43 39.9902 163.551 39.6679 163.759 39.3529C164.033 38.9401 164.373 38.6643 164.782 38.5255C165.192 38.3837 165.637 38.3725 166.116 38.4918ZM164.384 41.1309C164.441 41.3361 164.538 41.5295 164.672 41.711C164.812 41.8915 164.982 42.0476 165.181 42.179C165.376 42.3085 165.58 42.3993 165.792 42.4515C166.003 42.5036 166.211 42.5156 166.414 42.4874C166.617 42.4592 166.81 42.3868 166.993 42.2702C167.176 42.1536 167.336 41.9914 167.473 41.7834C167.613 41.5724 167.7 41.3616 167.733 41.151C167.767 40.9403 167.756 40.735 167.699 40.5348C167.646 40.3367 167.551 40.1509 167.415 39.9775C167.279 39.8041 167.112 39.6516 166.913 39.5202C166.714 39.3887 166.507 39.2933 166.291 39.2341C166.081 39.1738 165.872 39.1567 165.666 39.1829C165.458 39.204 165.261 39.2692 165.074 39.3787C164.893 39.4872 164.733 39.6454 164.596 39.8533C164.458 40.0613 164.373 40.2756 164.342 40.4964C164.312 40.7142 164.326 40.9256 164.384 41.1309ZM166.69 38.0535C166.743 38.2252 166.83 38.386 166.951 38.5361C167.073 38.6831 167.22 38.8133 167.391 38.9266C167.557 39.0358 167.723 39.113 167.891 39.1582C168.059 39.2034 168.225 39.2119 168.389 39.1839C168.547 39.1569 168.698 39.0943 168.842 38.9962C168.992 38.897 169.126 38.7572 169.245 38.5768C169.356 38.4086 169.422 38.2365 169.442 38.0605C169.466 37.8834 169.453 37.7116 169.4 37.545C169.351 37.3804 169.27 37.2262 169.159 37.0821C169.048 36.9381 168.912 36.8135 168.753 36.7083C168.594 36.6031 168.424 36.528 168.243 36.4829C168.067 36.4367 167.894 36.4231 167.723 36.442C167.552 36.4609 167.39 36.5164 167.237 36.6085C167.084 36.7005 166.951 36.8307 166.84 36.9989C166.725 37.1732 166.656 37.3499 166.634 37.5289C166.616 37.71 166.634 37.8849 166.69 38.0535Z" fill="white"/>
<path d="M102.507 9.55024C102.173 9.19458 101.915 8.76924 101.732 8.27424C101.548 7.77924 101.457 7.23108 101.457 6.62974C101.457 6.03208 101.548 5.48758 101.732 4.99624C101.919 4.50124 102.179 4.07591 102.513 3.72024C102.85 3.36824 103.251 3.09508 103.717 2.90074C104.183 2.70641 104.698 2.60924 105.263 2.60924C105.816 2.60924 106.322 2.70641 106.781 2.90074C107.243 3.09508 107.637 3.36824 107.963 3.72024C108.293 4.07591 108.548 4.50124 108.728 4.99624C108.911 5.48758 109.003 6.03208 109.003 6.62974C109.003 7.23108 108.911 7.77924 108.728 8.27424C108.544 8.76924 108.288 9.19458 107.958 9.55024C107.628 9.90591 107.232 10.1827 106.77 10.3807C106.308 10.5751 105.798 10.6722 105.241 10.6722C104.68 10.6722 104.166 10.5751 103.701 10.3807C103.239 10.1827 102.841 9.90591 102.507 9.55024ZM103.228 8.95074C103.477 9.22941 103.774 9.44574 104.119 9.59974C104.467 9.75008 104.85 9.82524 105.268 9.82524C105.675 9.82524 106.047 9.74641 106.385 9.58874C106.722 9.43108 107.012 9.20924 107.254 8.92324C107.496 8.63724 107.683 8.29441 107.815 7.89474C107.947 7.49508 108.013 7.05324 108.013 6.56924C108.013 6.10358 107.945 5.67824 107.809 5.29324C107.677 4.90824 107.49 4.57824 107.248 4.30324C107.002 4.02824 106.709 3.81558 106.368 3.66524C106.031 3.51124 105.657 3.43424 105.246 3.43424C104.832 3.43424 104.452 3.51307 104.108 3.67074C103.763 3.82841 103.468 4.05024 103.222 4.33624C102.976 4.61858 102.786 4.95958 102.65 5.35924C102.514 5.75524 102.447 6.19524 102.447 6.67924C102.447 7.14491 102.514 7.57208 102.65 7.96074C102.789 8.34574 102.982 8.67574 103.228 8.95074ZM110.504 12.5752V4.82024H111.417V5.75524C111.52 5.59391 111.646 5.44908 111.796 5.32074C111.947 5.19241 112.112 5.08241 112.291 4.99074C112.471 4.90274 112.656 4.83674 112.847 4.79274C113.041 4.74508 113.23 4.72124 113.413 4.72124C113.842 4.72124 114.216 4.80008 114.535 4.95774C114.858 5.11174 115.126 5.32441 115.338 5.59574C115.551 5.86341 115.711 6.17508 115.817 6.53074C115.927 6.88641 115.982 7.26224 115.982 7.65824C115.982 8.06158 115.927 8.44658 115.817 8.81324C115.707 9.17624 115.544 9.49524 115.327 9.77024C115.115 10.0452 114.851 10.2652 114.535 10.4302C114.22 10.5916 113.857 10.6722 113.446 10.6722C113.245 10.6722 113.045 10.6502 112.847 10.6062C112.649 10.5659 112.462 10.5036 112.286 10.4192C112.11 10.3349 111.947 10.2304 111.796 10.1057C111.65 9.97741 111.523 9.82708 111.417 9.65474V12.5752H110.504ZM111.857 9.28074C112.015 9.47508 112.211 9.62908 112.445 9.74274C112.68 9.85274 112.957 9.90774 113.276 9.90774C113.61 9.90774 113.888 9.84724 114.112 9.72624C114.336 9.60524 114.517 9.44208 114.656 9.23674C114.792 9.03141 114.889 8.79308 114.948 8.52174C115.007 8.24674 115.036 7.95891 115.036 7.65824C115.036 7.37958 114.999 7.11008 114.926 6.84974C114.853 6.58574 114.743 6.35291 114.596 6.15124C114.449 5.94958 114.264 5.78824 114.04 5.66724C113.82 5.54258 113.562 5.48024 113.265 5.48024C112.939 5.48024 112.656 5.54074 112.418 5.66174C112.183 5.78274 111.989 5.94408 111.835 6.14574C111.681 6.35108 111.567 6.58941 111.494 6.86074C111.424 7.12841 111.389 7.41074 111.389 7.70774C111.389 8.02308 111.428 8.31458 111.505 8.58224C111.582 8.84991 111.699 9.08274 111.857 9.28074ZM117.957 7.90574C117.957 8.20641 118.001 8.47958 118.089 8.72524C118.177 8.97091 118.304 9.17991 118.469 9.35224C118.634 9.52458 118.83 9.65841 119.057 9.75374C119.288 9.84541 119.543 9.89124 119.822 9.89124C119.976 9.89124 120.128 9.86924 120.278 9.82524C120.432 9.77758 120.579 9.70974 120.718 9.62174C120.854 9.53374 120.978 9.42924 121.092 9.30824C121.206 9.18724 121.301 9.05158 121.378 8.90124L122.236 9.25874C122.119 9.46774 121.97 9.66024 121.791 9.83624C121.615 10.0086 121.42 10.1571 121.208 10.2817C120.991 10.4064 120.764 10.5036 120.526 10.5732C120.287 10.6392 120.049 10.6722 119.811 10.6722C119.393 10.6722 119.011 10.6062 118.667 10.4742C118.326 10.3422 118.032 10.1516 117.787 9.90224C117.545 9.65291 117.356 9.35224 117.22 9.00024C117.084 8.64458 117.017 8.24308 117.017 7.79574V7.39974C117.017 7.00008 117.081 6.63708 117.209 6.31074C117.341 5.98074 117.524 5.69841 117.759 5.46374C117.994 5.22908 118.274 5.04758 118.601 4.91924C118.931 4.78724 119.295 4.72124 119.695 4.72124C120.076 4.72124 120.427 4.78541 120.746 4.91374C121.065 5.04208 121.34 5.22541 121.571 5.46374C121.802 5.69841 121.983 5.98074 122.115 6.31074C122.247 6.63708 122.317 6.99824 122.324 7.39424L122.335 7.90574H117.957ZM121.378 7.16324C121.371 6.91758 121.323 6.69391 121.235 6.49224C121.151 6.28691 121.035 6.11091 120.889 5.96424C120.738 5.81758 120.562 5.70391 120.361 5.62324C120.159 5.53891 119.937 5.49674 119.695 5.49674C119.471 5.49674 119.262 5.53891 119.068 5.62324C118.877 5.70391 118.707 5.81758 118.557 5.96424C118.406 6.11091 118.282 6.28691 118.183 6.49224C118.087 6.69391 118.023 6.91758 117.99 7.16324H121.378ZM123.776 10.5732V4.82024H124.689V5.69474C124.781 5.52608 124.891 5.38124 125.019 5.26024C125.147 5.13558 125.29 5.03291 125.448 4.95224C125.606 4.87158 125.774 4.81291 125.954 4.77624C126.134 4.73958 126.317 4.72124 126.504 4.72124C126.856 4.72124 127.162 4.78174 127.423 4.90274C127.683 5.02008 127.897 5.18508 128.066 5.39774C128.238 5.61041 128.367 5.86158 128.451 6.15124C128.535 6.44091 128.578 6.75624 128.578 7.09724V10.5732H127.659V7.03124C127.659 6.54358 127.545 6.16958 127.318 5.90924C127.094 5.64524 126.753 5.51324 126.295 5.51324C126.053 5.51324 125.833 5.54991 125.635 5.62324C125.437 5.69658 125.268 5.80108 125.129 5.93674C124.99 6.07241 124.882 6.23741 124.805 6.43174C124.728 6.62608 124.689 6.84424 124.689 7.08624V10.5732H123.776Z" fill="black"/>
<path d="M75.0211 33.4404V25.5754H75.9781V33.4404H75.0211ZM77.9928 33.4404V27.6874H78.9058V28.5619C78.9975 28.3933 79.1075 28.2484 79.2358 28.1274C79.3642 28.0028 79.5072 27.9001 79.6648 27.8194C79.8225 27.7388 79.9912 27.6801 80.1708 27.6434C80.3505 27.6068 80.5338 27.5884 80.7208 27.5884C81.0728 27.5884 81.379 27.6489 81.6393 27.7699C81.8997 27.8873 82.1142 28.0523 82.2828 28.2649C82.4552 28.4776 82.5835 28.7288 82.6678 29.0184C82.7522 29.3081 82.7943 29.6234 82.7943 29.9644V33.4404H81.8758V29.8984C81.8758 29.4108 81.7622 29.0368 81.5348 28.7764C81.3112 28.5124 80.9702 28.3804 80.5118 28.3804C80.2698 28.3804 80.0498 28.4171 79.8518 28.4904C79.6538 28.5638 79.4852 28.6683 79.3458 28.8039C79.2065 28.9396 79.0983 29.1046 79.0213 29.2989C78.9443 29.4933 78.9058 29.7114 78.9058 29.9534V33.4404H77.9928ZM86.8604 35.4424V27.6874H87.7734V28.6224C87.876 28.4611 88.0025 28.3163 88.1529 28.1879C88.3032 28.0596 88.4682 27.9496 88.6479 27.8579C88.8275 27.7699 89.0127 27.7039 89.2034 27.6599C89.3977 27.6123 89.5865 27.5884 89.7699 27.5884C90.1989 27.5884 90.5729 27.6673 90.8919 27.8249C91.2145 27.9789 91.4822 28.1916 91.6949 28.4629C91.9075 28.7306 92.067 29.0423 92.1734 29.3979C92.2834 29.7536 92.3384 30.1294 92.3384 30.5254C92.3384 30.9288 92.2834 31.3138 92.1734 31.6804C92.0634 32.0434 91.9002 32.3624 91.6839 32.6374C91.4712 32.9124 91.2072 33.1324 90.8919 33.2974C90.5765 33.4588 90.2135 33.5394 89.8029 33.5394C89.6012 33.5394 89.4014 33.5174 89.2034 33.4734C89.0054 33.4331 88.8184 33.3708 88.6424 33.2864C88.4664 33.2021 88.3032 33.0976 88.1529 32.9729C88.0062 32.8446 87.8797 32.6943 87.7734 32.5219V35.4424H86.8604ZM88.2134 32.1479C88.371 32.3423 88.5672 32.4963 88.8019 32.6099C89.0365 32.7199 89.3134 32.7749 89.6324 32.7749C89.966 32.7749 90.2447 32.7144 90.4684 32.5934C90.692 32.4724 90.8735 32.3093 91.0129 32.1039C91.1485 31.8986 91.2457 31.6603 91.3044 31.3889C91.363 31.1139 91.3924 30.8261 91.3924 30.5254C91.3924 30.2468 91.3557 29.9773 91.2824 29.7169C91.209 29.4529 91.099 29.2201 90.9524 29.0184C90.8057 28.8168 90.6205 28.6554 90.3969 28.5344C90.1769 28.4098 89.9184 28.3474 89.6214 28.3474C89.295 28.3474 89.0127 28.4079 88.7744 28.5289C88.5397 28.6499 88.3454 28.8113 88.1914 29.0129C88.0374 29.2183 87.9237 29.4566 87.8504 29.7279C87.7807 29.9956 87.7459 30.2779 87.7459 30.5749C87.7459 30.8903 87.7844 31.1818 87.8614 31.4494C87.9384 31.7171 88.0557 31.9499 88.2134 32.1479ZM93.4661 33.4404V27.6874H94.3791V28.6774C94.5845 28.3071 94.8375 28.0339 95.1381 27.8579C95.4388 27.6783 95.8018 27.5884 96.2271 27.5884V28.4519C95.9191 28.4629 95.6496 28.5033 95.4186 28.5729C95.1876 28.6389 94.9951 28.7453 94.8411 28.8919C94.6871 29.0349 94.5716 29.2201 94.4946 29.4474C94.4176 29.6748 94.3791 29.9534 94.3791 30.2834V33.4404H93.4661ZM97.4392 32.7144C97.1899 32.4541 96.9955 32.1424 96.8562 31.7794C96.7205 31.4164 96.6527 31.0149 96.6527 30.5749C96.6527 30.1349 96.7205 29.7316 96.8562 29.3649C96.9955 28.9946 97.1899 28.6793 97.4392 28.4189C97.6885 28.1549 97.9855 27.9514 98.3302 27.8084C98.6749 27.6618 99.0544 27.5884 99.4687 27.5884C99.8867 27.5884 100.266 27.6599 100.607 27.8029C100.952 27.9459 101.245 28.1476 101.487 28.4079C101.733 28.6683 101.922 28.9818 102.054 29.3484C102.189 29.7114 102.257 30.1129 102.257 30.5529C102.257 30.9929 102.189 31.3963 102.054 31.7629C101.922 32.1296 101.733 32.4449 101.487 32.7089C101.245 32.9693 100.952 33.1728 100.607 33.3194C100.266 33.4661 99.8867 33.5394 99.4687 33.5394C99.0544 33.5394 98.6749 33.4679 98.3302 33.3249C97.9855 33.1783 97.6885 32.9748 97.4392 32.7144ZM98.1212 32.1479C98.2862 32.3386 98.4824 32.4871 98.7097 32.5934C98.9407 32.6961 99.1937 32.7474 99.4687 32.7474C99.7474 32.7474 99.9985 32.6961 100.222 32.5934C100.45 32.4871 100.644 32.3368 100.805 32.1424C100.967 31.9518 101.091 31.7226 101.179 31.4549C101.267 31.1873 101.311 30.8903 101.311 30.5639C101.311 30.2376 101.267 29.9388 101.179 29.6674C101.091 29.3961 100.967 29.1633 100.805 28.9689C100.644 28.7783 100.45 28.6298 100.222 28.5234C99.9985 28.4134 99.7474 28.3584 99.4687 28.3584C99.1937 28.3584 98.9407 28.4134 98.7097 28.5234C98.4824 28.6298 98.2862 28.7801 98.1212 28.9744C97.9562 29.1688 97.8279 29.4016 97.7362 29.6729C97.6445 29.9406 97.5987 30.2394 97.5987 30.5694C97.5987 30.8921 97.6445 31.1873 97.7362 31.4549C97.8279 31.7226 97.9562 31.9536 98.1212 32.1479ZM104.057 33.8199C104.138 33.9996 104.244 34.1499 104.376 34.2709C104.512 34.3919 104.661 34.4891 104.822 34.5624C104.987 34.6358 105.157 34.6889 105.333 34.7219C105.513 34.7549 105.691 34.7714 105.867 34.7714C106.138 34.7714 106.389 34.7348 106.62 34.6614C106.855 34.5881 107.059 34.4763 107.231 34.3259C107.403 34.1793 107.537 33.9941 107.632 33.7704C107.728 33.5504 107.775 33.2919 107.775 32.9949V32.1809C107.669 32.3459 107.541 32.4944 107.39 32.6264C107.244 32.7584 107.082 32.8721 106.906 32.9674C106.734 33.0591 106.551 33.1306 106.356 33.1819C106.166 33.2296 105.973 33.2534 105.779 33.2534C105.387 33.2534 105.033 33.1801 104.717 33.0334C104.402 32.8831 104.133 32.6814 103.909 32.4284C103.685 32.1754 103.513 31.8821 103.392 31.5484C103.271 31.2111 103.21 30.8536 103.21 30.4759C103.21 30.0836 103.275 29.7133 103.403 29.3649C103.531 29.0166 103.711 28.7104 103.942 28.4464C104.177 28.1824 104.453 27.9734 104.772 27.8194C105.095 27.6654 105.451 27.5884 105.839 27.5884C106.03 27.5884 106.219 27.6086 106.406 27.6489C106.593 27.6893 106.771 27.7516 106.939 27.8359C107.104 27.9203 107.258 28.0248 107.401 28.1494C107.544 28.2741 107.669 28.4189 107.775 28.5839V27.6874H108.688V33.0499C108.688 33.4679 108.613 33.8328 108.463 34.1444C108.313 34.4561 108.109 34.7164 107.852 34.9254C107.592 35.1308 107.29 35.2848 106.945 35.3874C106.6 35.4901 106.234 35.5414 105.845 35.5414C105.585 35.5414 105.33 35.5176 105.08 35.4699C104.835 35.4223 104.604 35.3434 104.387 35.2334C104.167 35.1234 103.968 34.9786 103.788 34.7989C103.608 34.6229 103.456 34.4048 103.331 34.1444L104.057 33.8199ZM104.646 31.8729C104.804 32.0599 104.991 32.2084 105.207 32.3184C105.423 32.4284 105.663 32.4834 105.927 32.4834C106.228 32.4834 106.494 32.4284 106.725 32.3184C106.96 32.2084 107.158 32.0581 107.319 31.8674C107.477 31.6804 107.598 31.4586 107.682 31.2019C107.766 30.9453 107.808 30.6684 107.808 30.3714C107.808 30.0854 107.768 29.8196 107.687 29.5739C107.607 29.3283 107.489 29.1138 107.335 28.9304C107.185 28.7508 106.998 28.6096 106.774 28.5069C106.551 28.4043 106.296 28.3529 106.01 28.3529C105.706 28.3529 105.436 28.4116 105.201 28.5289C104.97 28.6426 104.778 28.7966 104.624 28.9909C104.47 29.1889 104.353 29.4163 104.272 29.6729C104.195 29.9296 104.156 30.2009 104.156 30.4869C104.156 30.7473 104.199 30.9984 104.283 31.2404C104.371 31.4788 104.492 31.6896 104.646 31.8729ZM110.224 33.4404V27.6874H111.137V28.6774C111.342 28.3071 111.595 28.0339 111.896 27.8579C112.197 27.6783 112.56 27.5884 112.985 27.5884V28.4519C112.677 28.4629 112.407 28.5033 112.176 28.5729C111.945 28.6389 111.753 28.7453 111.599 28.8919C111.445 29.0349 111.329 29.2201 111.252 29.4474C111.175 29.6748 111.137 29.9534 111.137 30.2834V33.4404H110.224ZM114.208 30.7729C114.208 31.0736 114.252 31.3468 114.34 31.5924C114.428 31.8381 114.555 32.0471 114.72 32.2194C114.885 32.3918 115.081 32.5256 115.308 32.6209C115.539 32.7126 115.794 32.7584 116.073 32.7584C116.227 32.7584 116.379 32.7364 116.529 32.6924C116.683 32.6448 116.83 32.5769 116.969 32.4889C117.105 32.4009 117.229 32.2964 117.343 32.1754C117.457 32.0544 117.552 31.9188 117.629 31.7684L118.487 32.1259C118.37 32.3349 118.221 32.5274 118.042 32.7034C117.866 32.8758 117.671 33.0243 117.459 33.1489C117.242 33.2736 117.015 33.3708 116.777 33.4404C116.538 33.5064 116.3 33.5394 116.062 33.5394C115.644 33.5394 115.262 33.4734 114.918 33.3414C114.577 33.2094 114.283 33.0188 114.038 32.7694C113.796 32.5201 113.607 32.2194 113.471 31.8674C113.335 31.5118 113.268 31.1103 113.268 30.6629V30.2669C113.268 29.8673 113.332 29.5043 113.46 29.1779C113.592 28.8479 113.775 28.5656 114.01 28.3309C114.245 28.0963 114.525 27.9148 114.852 27.7864C115.182 27.6544 115.546 27.5884 115.946 27.5884C116.327 27.5884 116.678 27.6526 116.997 27.7809C117.316 27.9093 117.591 28.0926 117.822 28.3309C118.053 28.5656 118.234 28.8479 118.366 29.1779C118.498 29.5043 118.568 29.8654 118.575 30.2614L118.586 30.7729H114.208ZM117.629 30.0304C117.622 29.7848 117.574 29.5611 117.486 29.3594C117.402 29.1541 117.286 28.9781 117.14 28.8314C116.989 28.6848 116.813 28.5711 116.612 28.4904C116.41 28.4061 116.188 28.3639 115.946 28.3639C115.722 28.3639 115.513 28.4061 115.319 28.4904C115.128 28.5711 114.958 28.6848 114.808 28.8314C114.657 28.9781 114.533 29.1541 114.434 29.3594C114.338 29.5611 114.274 29.7848 114.241 30.0304H117.629ZM120.195 31.7244C120.301 32.0618 120.479 32.3203 120.728 32.4999C120.981 32.6796 121.274 32.7694 121.608 32.7694C121.762 32.7694 121.912 32.7548 122.059 32.7254C122.209 32.6961 122.343 32.6466 122.461 32.5769C122.578 32.5073 122.673 32.4156 122.747 32.3019C122.82 32.1883 122.857 32.0453 122.857 31.8729C122.857 31.6969 122.818 31.5539 122.741 31.4439C122.668 31.3303 122.569 31.2368 122.444 31.1634C122.319 31.0864 122.175 31.0241 122.01 30.9764C121.845 30.9288 121.674 30.8829 121.498 30.8389C121.282 30.7876 121.065 30.7289 120.849 30.6629C120.636 30.5969 120.446 30.5071 120.277 30.3934C120.105 30.2761 119.964 30.1239 119.854 29.9369C119.747 29.7499 119.694 29.5061 119.694 29.2054C119.694 28.9524 119.747 28.7269 119.854 28.5289C119.964 28.3273 120.108 28.1568 120.288 28.0174C120.464 27.8781 120.664 27.7718 120.888 27.6984C121.115 27.6251 121.346 27.5884 121.581 27.5884C121.793 27.5884 121.999 27.6196 122.197 27.6819C122.395 27.7406 122.578 27.8268 122.747 27.9404C122.915 28.0541 123.069 28.1916 123.209 28.3529C123.352 28.5143 123.474 28.6939 123.577 28.8919L122.873 29.2109C122.745 28.9323 122.561 28.7196 122.323 28.5729C122.088 28.4263 121.83 28.3529 121.548 28.3529C121.423 28.3529 121.3 28.3694 121.179 28.4024C121.062 28.4318 120.955 28.4794 120.86 28.5454C120.765 28.6114 120.688 28.6976 120.629 28.8039C120.574 28.9066 120.547 29.0331 120.547 29.1834C120.547 29.3484 120.583 29.4859 120.657 29.5959C120.73 29.7023 120.829 29.7884 120.954 29.8544C121.078 29.9241 121.221 29.9809 121.383 30.0249C121.548 30.0689 121.718 30.1093 121.894 30.1459C122.114 30.1936 122.332 30.2486 122.549 30.3109C122.769 30.3696 122.965 30.4558 123.137 30.5694C123.313 30.6794 123.456 30.8279 123.566 31.0149C123.676 31.2019 123.731 31.4458 123.731 31.7464C123.731 32.0581 123.672 32.3258 123.555 32.5494C123.438 32.7731 123.282 32.9583 123.088 33.1049C122.897 33.2516 122.677 33.3616 122.428 33.4349C122.178 33.5046 121.92 33.5394 121.652 33.5394C121.395 33.5394 121.153 33.5064 120.926 33.4404C120.699 33.3781 120.492 33.2828 120.305 33.1544C120.121 33.0298 119.96 32.8739 119.821 32.6869C119.681 32.4999 119.569 32.2854 119.485 32.0434L120.195 31.7244ZM125.405 31.7244C125.511 32.0618 125.689 32.3203 125.938 32.4999C126.191 32.6796 126.484 32.7694 126.818 32.7694C126.972 32.7694 127.122 32.7548 127.269 32.7254C127.419 32.6961 127.553 32.6466 127.671 32.5769C127.788 32.5073 127.883 32.4156 127.957 32.3019C128.03 32.1883 128.067 32.0453 128.067 31.8729C128.067 31.6969 128.028 31.5539 127.951 31.4439C127.878 31.3303 127.779 31.2368 127.654 31.1634C127.529 31.0864 127.385 31.0241 127.22 30.9764C127.055 30.9288 126.884 30.8829 126.708 30.8389C126.492 30.7876 126.275 30.7289 126.059 30.6629C125.846 30.5969 125.656 30.5071 125.487 30.3934C125.315 30.2761 125.174 30.1239 125.064 29.9369C124.957 29.7499 124.904 29.5061 124.904 29.2054C124.904 28.9524 124.957 28.7269 125.064 28.5289C125.174 28.3273 125.318 28.1568 125.498 28.0174C125.674 27.8781 125.874 27.7718 126.098 27.6984C126.325 27.6251 126.556 27.5884 126.791 27.5884C127.003 27.5884 127.209 27.6196 127.407 27.6819C127.605 27.7406 127.788 27.8268 127.957 27.9404C128.125 28.0541 128.279 28.1916 128.419 28.3529C128.562 28.5143 128.684 28.6939 128.787 28.8919L128.083 29.2109C127.955 28.9323 127.771 28.7196 127.533 28.5729C127.298 28.4263 127.04 28.3529 126.758 28.3529C126.633 28.3529 126.51 28.3694 126.389 28.4024C126.272 28.4318 126.165 28.4794 126.07 28.5454C125.975 28.6114 125.898 28.6976 125.839 28.8039C125.784 28.9066 125.757 29.0331 125.757 29.1834C125.757 29.3484 125.793 29.4859 125.867 29.5959C125.94 29.7023 126.039 29.7884 126.164 29.8544C126.288 29.9241 126.431 29.9809 126.593 30.0249C126.758 30.0689 126.928 30.1093 127.104 30.1459C127.324 30.1936 127.542 30.2486 127.759 30.3109C127.979 30.3696 128.175 30.4558 128.347 30.5694C128.523 30.6794 128.666 30.8279 128.776 31.0149C128.886 31.2019 128.941 31.4458 128.941 31.7464C128.941 32.0581 128.882 32.3258 128.765 32.5494C128.648 32.7731 128.492 32.9583 128.298 33.1049C128.107 33.2516 127.887 33.3616 127.638 33.4349C127.388 33.5046 127.13 33.5394 126.862 33.5394C126.605 33.5394 126.363 33.5064 126.136 33.4404C125.909 33.3781 125.702 33.2828 125.515 33.1544C125.331 33.0298 125.17 32.8739 125.031 32.6869C124.891 32.4999 124.779 32.2854 124.695 32.0434L125.405 31.7244Z" fill="black"/>
</svg>
