<svg width="1600" height="40" viewBox="0 0 1600 40" fill="none" xmlns="http://www.w3.org/2000/svg">
<mask id="path-1-inside-1_993_231305" fill="white">
<path d="M0 0H1600V40H0V0Z"/>
</mask>
<path d="M0 0H1600V40H0V0Z" fill="white"/>
<path d="M1600 40V39H0V40V41H1600V40Z" fill="#E9E9E9" mask="url(#path-1-inside-1_993_231305)"/>
<path d="M25.4978 21.366C25.5858 21.666 25.7018 21.934 25.8458 22.17C25.9898 22.402 26.1578 22.6 26.3498 22.764C26.5418 22.924 26.7518 23.048 26.9798 23.136C27.2118 23.22 27.4598 23.262 27.7238 23.262C27.9878 23.262 28.2318 23.222 28.4558 23.142C28.6838 23.058 28.8818 22.944 29.0498 22.8C29.2178 22.656 29.3478 22.486 29.4398 22.29C29.5358 22.09 29.5838 21.874 29.5838 21.642C29.5838 21.346 29.5258 21.106 29.4098 20.922C29.2938 20.738 29.1398 20.588 28.9478 20.472C28.7518 20.356 28.5278 20.264 28.2758 20.196C28.0278 20.128 27.7678 20.064 27.4958 20.004C27.1798 19.936 26.8658 19.858 26.5538 19.77C26.2418 19.682 25.9618 19.556 25.7138 19.392C25.4658 19.224 25.2638 19.002 25.1078 18.726C24.9518 18.45 24.8738 18.088 24.8738 17.64C24.8738 17.308 24.9398 17.002 25.0718 16.722C25.2038 16.438 25.3878 16.19 25.6238 15.978C25.8558 15.77 26.1298 15.608 26.4458 15.492C26.7658 15.372 27.1098 15.312 27.4778 15.312C28.1538 15.312 28.7158 15.478 29.1638 15.81C29.6158 16.142 29.9838 16.634 30.2678 17.286L29.3858 17.694C29.1938 17.214 28.9378 16.838 28.6178 16.566C28.2978 16.29 27.9178 16.152 27.4778 16.152C26.9738 16.152 26.5798 16.276 26.2958 16.524C26.0158 16.772 25.8758 17.12 25.8758 17.568C25.8758 17.856 25.9338 18.092 26.0498 18.276C26.1658 18.456 26.3218 18.604 26.5178 18.72C26.7138 18.836 26.9378 18.93 27.1898 19.002C27.4418 19.07 27.7038 19.136 27.9758 19.2C28.2958 19.272 28.6118 19.354 28.9238 19.446C29.2398 19.538 29.5238 19.668 29.7758 19.836C30.0278 20.004 30.2318 20.226 30.3878 20.502C30.5438 20.774 30.6218 21.13 30.6218 21.57C30.6218 21.918 30.5438 22.246 30.3878 22.554C30.2358 22.862 30.0278 23.132 29.7638 23.364C29.4998 23.592 29.1898 23.774 28.8338 23.91C28.4818 24.042 28.1038 24.108 27.6998 24.108C26.8838 24.108 26.2158 23.918 25.6958 23.538C25.1798 23.158 24.7938 22.576 24.5378 21.792L25.4978 21.366ZM33.0334 22.884C32.6694 22.496 32.3874 22.032 32.1874 21.492C31.9874 20.952 31.8874 20.354 31.8874 19.698C31.8874 19.046 31.9874 18.452 32.1874 17.916C32.3914 17.376 32.6754 16.912 33.0394 16.524C33.4074 16.14 33.8454 15.842 34.3534 15.63C34.8614 15.418 35.4234 15.312 36.0394 15.312C36.6434 15.312 37.1954 15.418 37.6954 15.63C38.1994 15.842 38.6294 16.14 38.9854 16.524C39.3454 16.912 39.6234 17.376 39.8194 17.916C40.0194 18.452 40.1194 19.046 40.1194 19.698C40.1194 20.354 40.0194 20.952 39.8194 21.492C39.6194 22.032 39.3394 22.496 38.9794 22.884C38.6194 23.272 38.1874 23.574 37.6834 23.79C37.1794 24.002 36.6234 24.108 36.0154 24.108C35.4034 24.108 34.8434 24.002 34.3354 23.79C33.8314 23.574 33.3974 23.272 33.0334 22.884ZM33.8194 22.23C34.0914 22.534 34.4154 22.77 34.7914 22.938C35.1714 23.102 35.5894 23.184 36.0454 23.184C36.4894 23.184 36.8954 23.098 37.2634 22.926C37.6314 22.754 37.9474 22.512 38.2114 22.2C38.4754 21.888 38.6794 21.514 38.8234 21.078C38.9674 20.642 39.0394 20.16 39.0394 19.632C39.0394 19.124 38.9654 18.66 38.8174 18.24C38.6734 17.82 38.4694 17.46 38.2054 17.16C37.9374 16.86 37.6174 16.628 37.2454 16.464C36.8774 16.296 36.4694 16.212 36.0214 16.212C35.5694 16.212 35.1554 16.298 34.7794 16.47C34.4034 16.642 34.0814 16.884 33.8134 17.196C33.5454 17.504 33.3374 17.876 33.1894 18.312C33.0414 18.744 32.9674 19.224 32.9674 19.752C32.9674 20.26 33.0414 20.726 33.1894 21.15C33.3414 21.57 33.5514 21.93 33.8194 22.23ZM48.8913 21.558C48.7513 21.918 48.5633 22.254 48.3273 22.566C48.0913 22.874 47.8233 23.142 47.5233 23.37C47.2193 23.602 46.8873 23.784 46.5273 23.916C46.1673 24.044 45.7913 24.108 45.3993 24.108C44.7473 24.108 44.1713 23.996 43.6713 23.772C43.1713 23.548 42.7513 23.238 42.4113 22.842C42.0713 22.446 41.8133 21.978 41.6373 21.438C41.4613 20.894 41.3733 20.304 41.3733 19.668C41.3733 19.08 41.4653 18.522 41.6493 17.994C41.8373 17.466 42.1033 17.004 42.4473 16.608C42.7873 16.212 43.2013 15.898 43.6893 15.666C44.1813 15.43 44.7293 15.312 45.3333 15.312C45.7133 15.312 46.0813 15.368 46.4373 15.48C46.7973 15.588 47.1313 15.744 47.4393 15.948C47.7433 16.156 48.0133 16.406 48.2493 16.698C48.4893 16.986 48.6753 17.31 48.8073 17.67L47.9373 18.06C47.8293 17.772 47.6893 17.51 47.5173 17.274C47.3493 17.038 47.1533 16.836 46.9293 16.668C46.7093 16.5 46.4653 16.37 46.1973 16.278C45.9293 16.186 45.6453 16.14 45.3453 16.14C44.8413 16.14 44.4093 16.242 44.0493 16.446C43.6893 16.646 43.3913 16.912 43.1553 17.244C42.9233 17.58 42.7513 17.962 42.6393 18.39C42.5313 18.814 42.4773 19.252 42.4773 19.704C42.4773 20.184 42.5373 20.64 42.6573 21.072C42.7813 21.5 42.9673 21.876 43.2153 22.2C43.4593 22.524 43.7653 22.782 44.1333 22.974C44.5013 23.162 44.9313 23.256 45.4233 23.256C45.7233 23.256 46.0093 23.202 46.2813 23.094C46.5533 22.982 46.8053 22.832 47.0373 22.644C47.2693 22.456 47.4733 22.238 47.6493 21.99C47.8253 21.738 47.9673 21.472 48.0753 21.192L48.8913 21.558ZM53.6232 22.884C53.2592 22.496 52.9772 22.032 52.7772 21.492C52.5772 20.952 52.4772 20.354 52.4772 19.698C52.4772 19.046 52.5772 18.452 52.7772 17.916C52.9812 17.376 53.2652 16.912 53.6292 16.524C53.9972 16.14 54.4352 15.842 54.9432 15.63C55.4512 15.418 56.0132 15.312 56.6292 15.312C57.2332 15.312 57.7852 15.418 58.2852 15.63C58.7892 15.842 59.2192 16.14 59.5752 16.524C59.9352 16.912 60.2132 17.376 60.4092 17.916C60.6092 18.452 60.7092 19.046 60.7092 19.698C60.7092 20.354 60.6092 20.952 60.4092 21.492C60.2092 22.032 59.9292 22.496 59.5692 22.884C59.2092 23.272 58.7772 23.574 58.2732 23.79C57.7692 24.002 57.2132 24.108 56.6052 24.108C55.9932 24.108 55.4332 24.002 54.9252 23.79C54.4212 23.574 53.9872 23.272 53.6232 22.884ZM54.4092 22.23C54.6812 22.534 55.0052 22.77 55.3812 22.938C55.7612 23.102 56.1792 23.184 56.6352 23.184C57.0792 23.184 57.4852 23.098 57.8532 22.926C58.2212 22.754 58.5372 22.512 58.8012 22.2C59.0652 21.888 59.2692 21.514 59.4132 21.078C59.5572 20.642 59.6292 20.16 59.6292 19.632C59.6292 19.124 59.5552 18.66 59.4072 18.24C59.2632 17.82 59.0592 17.46 58.7952 17.16C58.5272 16.86 58.2072 16.628 57.8352 16.464C57.4672 16.296 57.0592 16.212 56.6112 16.212C56.1592 16.212 55.7452 16.298 55.3692 16.47C54.9932 16.642 54.6712 16.884 54.4032 17.196C54.1352 17.504 53.9272 17.876 53.7792 18.312C53.6312 18.744 53.5572 19.224 53.5572 19.752C53.5572 20.26 53.6312 20.726 53.7792 21.15C53.9312 21.57 54.1412 21.93 54.4092 22.23ZM63.6962 24L61.5182 17.724H62.5982L64.3562 22.956L66.0842 17.724H67.1162L64.9622 24H63.6962ZM68.72 21.09C68.72 21.418 68.768 21.716 68.864 21.984C68.96 22.252 69.098 22.48 69.278 22.668C69.458 22.856 69.672 23.002 69.92 23.106C70.172 23.206 70.45 23.256 70.754 23.256C70.922 23.256 71.088 23.232 71.252 23.184C71.42 23.132 71.58 23.058 71.732 22.962C71.88 22.866 72.016 22.752 72.14 22.62C72.264 22.488 72.368 22.34 72.452 22.176L73.388 22.566C73.26 22.794 73.098 23.004 72.902 23.196C72.71 23.384 72.498 23.546 72.266 23.682C72.03 23.818 71.782 23.924 71.522 24C71.262 24.072 71.002 24.108 70.742 24.108C70.286 24.108 69.87 24.036 69.494 23.892C69.122 23.748 68.802 23.54 68.534 23.268C68.27 22.996 68.064 22.668 67.916 22.284C67.768 21.896 67.694 21.458 67.694 20.97V20.538C67.694 20.102 67.764 19.706 67.904 19.35C68.048 18.99 68.248 18.682 68.504 18.426C68.76 18.17 69.066 17.972 69.422 17.832C69.782 17.688 70.18 17.616 70.616 17.616C71.032 17.616 71.414 17.686 71.762 17.826C72.11 17.966 72.41 18.166 72.662 18.426C72.914 18.682 73.112 18.99 73.256 19.35C73.4 19.706 73.476 20.1 73.484 20.532L73.496 21.09H68.72ZM72.452 20.28C72.444 20.012 72.392 19.768 72.296 19.548C72.204 19.324 72.078 19.132 71.918 18.972C71.754 18.812 71.562 18.688 71.342 18.6C71.122 18.508 70.88 18.462 70.616 18.462C70.372 18.462 70.144 18.508 69.932 18.6C69.724 18.688 69.538 18.812 69.374 18.972C69.21 19.132 69.074 19.324 68.966 19.548C68.862 19.768 68.792 20.012 68.756 20.28H72.452ZM74.78 24V17.724H75.776V18.804C76 18.4 76.276 18.102 76.604 17.91C76.932 17.714 77.328 17.616 77.792 17.616V18.558C77.456 18.57 77.162 18.614 76.91 18.69C76.658 18.762 76.448 18.878 76.28 19.038C76.112 19.194 75.986 19.396 75.902 19.644C75.818 19.892 75.776 20.196 75.776 20.556V24H74.78ZM80.9696 24L78.7916 17.724H79.8716L81.6296 22.956L83.3576 17.724H84.3896L82.2356 24H80.9696ZM85.7978 24V17.736H86.7938V24H85.7978ZM85.8098 16.392C85.7498 16.332 85.7018 16.262 85.6658 16.182C85.6338 16.098 85.6178 16.01 85.6178 15.918C85.6178 15.826 85.6338 15.74 85.6658 15.66C85.7018 15.58 85.7498 15.51 85.8098 15.45C85.8698 15.39 85.9398 15.344 86.0198 15.312C86.0998 15.276 86.1858 15.258 86.2778 15.258C86.3698 15.258 86.4558 15.276 86.5358 15.312C86.6158 15.344 86.6858 15.39 86.7458 15.45C86.8058 15.51 86.8518 15.58 86.8838 15.66C86.9198 15.74 86.9378 15.826 86.9378 15.918C86.9378 16.01 86.9198 16.098 86.8838 16.182C86.8518 16.262 86.8058 16.332 86.7458 16.392C86.6858 16.448 86.6158 16.494 86.5358 16.53C86.4558 16.566 86.3698 16.584 86.2778 16.584C86.1858 16.584 86.0998 16.566 86.0198 16.53C85.9398 16.494 85.8698 16.448 85.8098 16.392ZM89.2747 21.09C89.2747 21.418 89.3227 21.716 89.4187 21.984C89.5147 22.252 89.6527 22.48 89.8327 22.668C90.0127 22.856 90.2267 23.002 90.4747 23.106C90.7267 23.206 91.0047 23.256 91.3087 23.256C91.4767 23.256 91.6427 23.232 91.8067 23.184C91.9747 23.132 92.1347 23.058 92.2867 22.962C92.4347 22.866 92.5707 22.752 92.6947 22.62C92.8187 22.488 92.9227 22.34 93.0067 22.176L93.9427 22.566C93.8147 22.794 93.6527 23.004 93.4567 23.196C93.2647 23.384 93.0527 23.546 92.8207 23.682C92.5847 23.818 92.3367 23.924 92.0767 24C91.8167 24.072 91.5567 24.108 91.2967 24.108C90.8407 24.108 90.4247 24.036 90.0487 23.892C89.6767 23.748 89.3567 23.54 89.0887 23.268C88.8247 22.996 88.6187 22.668 88.4707 22.284C88.3227 21.896 88.2487 21.458 88.2487 20.97V20.538C88.2487 20.102 88.3187 19.706 88.4587 19.35C88.6027 18.99 88.8027 18.682 89.0587 18.426C89.3147 18.17 89.6207 17.972 89.9767 17.832C90.3367 17.688 90.7347 17.616 91.1707 17.616C91.5867 17.616 91.9687 17.686 92.3167 17.826C92.6647 17.966 92.9647 18.166 93.2167 18.426C93.4687 18.682 93.6667 18.99 93.8107 19.35C93.9547 19.706 94.0307 20.1 94.0387 20.532L94.0507 21.09H89.2747ZM93.0067 20.28C92.9987 20.012 92.9467 19.768 92.8507 19.548C92.7587 19.324 92.6327 19.132 92.4727 18.972C92.3087 18.812 92.1167 18.688 91.8967 18.6C91.6767 18.508 91.4347 18.462 91.1707 18.462C90.9267 18.462 90.6987 18.508 90.4867 18.6C90.2787 18.688 90.0927 18.812 89.9287 18.972C89.7647 19.132 89.6287 19.324 89.5207 19.548C89.4167 19.768 89.3467 20.012 89.3107 20.28H93.0067ZM96.7143 24L94.7403 17.724H95.8203L97.3263 22.734L98.8023 17.724H99.6663L101.118 22.734L102.624 17.724H103.644L101.664 24H100.56L99.2283 19.332L97.8123 24H96.7143Z" fill="black"/>
<mask id="path-4-inside-2_993_231305" fill="white">
<path d="M124 0H185V40H124V0Z"/>
</mask>
<path d="M185 40V38H124V40V42H185V40Z" fill="#2C66DD" mask="url(#path-4-inside-2_993_231305)"/>
<path d="M133.068 24V15.42H138.21V16.272H134.106V19.188H137.46V20.04H134.106V23.148H138.42V24H133.068ZM139.289 24L141.479 20.772L139.433 17.724H140.591L142.079 19.986L143.555 17.724H144.623L142.601 20.7L144.839 24H143.669L142.031 21.486L140.357 24H139.289ZM145.992 26.184V17.724H146.988V18.744C147.1 18.568 147.238 18.41 147.402 18.27C147.566 18.13 147.746 18.01 147.942 17.91C148.138 17.814 148.34 17.742 148.548 17.694C148.76 17.642 148.966 17.616 149.166 17.616C149.634 17.616 150.042 17.702 150.39 17.874C150.742 18.042 151.034 18.274 151.266 18.57C151.498 18.862 151.672 19.202 151.788 19.59C151.908 19.978 151.968 20.388 151.968 20.82C151.968 21.26 151.908 21.68 151.788 22.08C151.668 22.476 151.49 22.824 151.254 23.124C151.022 23.424 150.734 23.664 150.39 23.844C150.046 24.02 149.65 24.108 149.202 24.108C148.982 24.108 148.764 24.084 148.548 24.036C148.332 23.992 148.128 23.924 147.936 23.832C147.744 23.74 147.566 23.626 147.402 23.49C147.242 23.35 147.104 23.186 146.988 22.998V26.184H145.992ZM147.468 22.59C147.64 22.802 147.854 22.97 148.11 23.094C148.366 23.214 148.668 23.274 149.016 23.274C149.38 23.274 149.684 23.208 149.928 23.076C150.172 22.944 150.37 22.766 150.522 22.542C150.67 22.318 150.776 22.058 150.84 21.762C150.904 21.462 150.936 21.148 150.936 20.82C150.936 20.516 150.896 20.222 150.816 19.938C150.736 19.65 150.616 19.396 150.456 19.176C150.296 18.956 150.094 18.78 149.85 18.648C149.61 18.512 149.328 18.444 149.004 18.444C148.648 18.444 148.34 18.51 148.08 18.642C147.824 18.774 147.612 18.95 147.444 19.17C147.276 19.394 147.152 19.654 147.072 19.95C146.996 20.242 146.958 20.55 146.958 20.874C146.958 21.218 147 21.536 147.084 21.828C147.168 22.12 147.296 22.374 147.468 22.59ZM153.54 24V14.928L154.548 14.472V24H153.54ZM156.958 23.208C156.686 22.924 156.474 22.584 156.322 22.188C156.174 21.792 156.1 21.354 156.1 20.874C156.1 20.394 156.174 19.954 156.322 19.554C156.474 19.15 156.686 18.806 156.958 18.522C157.23 18.234 157.554 18.012 157.93 17.856C158.306 17.696 158.72 17.616 159.172 17.616C159.628 17.616 160.042 17.694 160.414 17.85C160.79 18.006 161.11 18.226 161.374 18.51C161.642 18.794 161.848 19.136 161.992 19.536C162.14 19.932 162.214 20.37 162.214 20.85C162.214 21.33 162.14 21.77 161.992 22.17C161.848 22.57 161.642 22.914 161.374 23.202C161.11 23.486 160.79 23.708 160.414 23.868C160.042 24.028 159.628 24.108 159.172 24.108C158.72 24.108 158.306 24.03 157.93 23.874C157.554 23.714 157.23 23.492 156.958 23.208ZM157.702 22.59C157.882 22.798 158.096 22.96 158.344 23.076C158.596 23.188 158.872 23.244 159.172 23.244C159.476 23.244 159.75 23.188 159.994 23.076C160.242 22.96 160.454 22.796 160.63 22.584C160.806 22.376 160.942 22.126 161.038 21.834C161.134 21.542 161.182 21.218 161.182 20.862C161.182 20.506 161.134 20.18 161.038 19.884C160.942 19.588 160.806 19.334 160.63 19.122C160.454 18.914 160.242 18.752 159.994 18.636C159.75 18.516 159.476 18.456 159.172 18.456C158.872 18.456 158.596 18.516 158.344 18.636C158.096 18.752 157.882 18.916 157.702 19.128C157.522 19.34 157.382 19.594 157.282 19.89C157.182 20.182 157.132 20.508 157.132 20.868C157.132 21.22 157.182 21.542 157.282 21.834C157.382 22.126 157.522 22.378 157.702 22.59ZM163.51 24V17.724H164.506V18.804C164.73 18.4 165.006 18.102 165.334 17.91C165.662 17.714 166.058 17.616 166.522 17.616V18.558C166.186 18.57 165.892 18.614 165.64 18.69C165.388 18.762 165.178 18.878 165.01 19.038C164.842 19.194 164.716 19.396 164.632 19.644C164.548 19.892 164.506 20.196 164.506 20.556V24H163.51ZM167.857 21.09C167.857 21.418 167.905 21.716 168.001 21.984C168.097 22.252 168.235 22.48 168.415 22.668C168.595 22.856 168.809 23.002 169.057 23.106C169.309 23.206 169.587 23.256 169.891 23.256C170.059 23.256 170.225 23.232 170.389 23.184C170.557 23.132 170.717 23.058 170.869 22.962C171.017 22.866 171.153 22.752 171.277 22.62C171.401 22.488 171.505 22.34 171.589 22.176L172.525 22.566C172.397 22.794 172.235 23.004 172.039 23.196C171.847 23.384 171.635 23.546 171.403 23.682C171.167 23.818 170.919 23.924 170.659 24C170.399 24.072 170.139 24.108 169.879 24.108C169.423 24.108 169.007 24.036 168.631 23.892C168.259 23.748 167.939 23.54 167.671 23.268C167.407 22.996 167.201 22.668 167.053 22.284C166.905 21.896 166.831 21.458 166.831 20.97V20.538C166.831 20.102 166.901 19.706 167.041 19.35C167.185 18.99 167.385 18.682 167.641 18.426C167.897 18.17 168.203 17.972 168.559 17.832C168.919 17.688 169.317 17.616 169.753 17.616C170.169 17.616 170.551 17.686 170.899 17.826C171.247 17.966 171.547 18.166 171.799 18.426C172.051 18.682 172.249 18.99 172.393 19.35C172.537 19.706 172.613 20.1 172.621 20.532L172.633 21.09H167.857ZM171.589 20.28C171.581 20.012 171.529 19.768 171.433 19.548C171.341 19.324 171.215 19.132 171.055 18.972C170.891 18.812 170.699 18.688 170.479 18.6C170.259 18.508 170.017 18.462 169.753 18.462C169.509 18.462 169.281 18.508 169.069 18.6C168.861 18.688 168.675 18.812 168.511 18.972C168.347 19.132 168.211 19.324 168.103 19.548C167.999 19.768 167.929 20.012 167.893 20.28H171.589ZM173.917 24V17.724H174.913V18.804C175.137 18.4 175.413 18.102 175.741 17.91C176.069 17.714 176.465 17.616 176.929 17.616V18.558C176.593 18.57 176.299 18.614 176.047 18.69C175.795 18.762 175.585 18.878 175.417 19.038C175.249 19.194 175.123 19.396 175.039 19.644C174.955 19.892 174.913 20.196 174.913 20.556V24H173.917Z" fill="#2C66DD"/>
<path d="M206.637 24V15.42H207.681V24H206.637ZM209.879 24V17.724H210.875V18.678C210.975 18.494 211.095 18.336 211.235 18.204C211.375 18.068 211.531 17.956 211.703 17.868C211.875 17.78 212.059 17.716 212.255 17.676C212.451 17.636 212.651 17.616 212.855 17.616C213.239 17.616 213.573 17.682 213.857 17.814C214.141 17.942 214.375 18.122 214.559 18.354C214.747 18.586 214.887 18.86 214.979 19.176C215.071 19.492 215.117 19.836 215.117 20.208V24H214.115V20.136C214.115 19.604 213.991 19.196 213.743 18.912C213.499 18.624 213.127 18.48 212.627 18.48C212.363 18.48 212.123 18.52 211.907 18.6C211.691 18.68 211.507 18.794 211.355 18.942C211.203 19.09 211.085 19.27 211.001 19.482C210.917 19.694 210.875 19.932 210.875 20.196V24H209.879ZM222.341 22.176C222.101 22.8 221.741 23.278 221.261 23.61C220.781 23.942 220.219 24.108 219.575 24.108C219.099 24.108 218.675 24.024 218.303 23.856C217.935 23.684 217.625 23.45 217.373 23.154C217.121 22.862 216.929 22.516 216.797 22.116C216.665 21.716 216.599 21.288 216.599 20.832C216.599 20.384 216.671 19.966 216.815 19.578C216.963 19.186 217.167 18.844 217.427 18.552C217.691 18.264 218.005 18.036 218.369 17.868C218.733 17.7 219.135 17.616 219.575 17.616C220.219 17.616 220.767 17.762 221.219 18.054C221.675 18.342 222.035 18.774 222.299 19.35L221.393 19.758C221.325 19.566 221.229 19.392 221.105 19.236C220.985 19.076 220.845 18.94 220.685 18.828C220.525 18.716 220.349 18.63 220.157 18.57C219.969 18.506 219.775 18.474 219.575 18.474C219.243 18.474 218.955 18.544 218.711 18.684C218.467 18.824 218.265 19.008 218.105 19.236C217.945 19.464 217.825 19.726 217.745 20.022C217.669 20.314 217.631 20.614 217.631 20.922C217.631 21.242 217.671 21.544 217.751 21.828C217.835 22.112 217.957 22.358 218.117 22.566C218.281 22.778 218.483 22.946 218.723 23.07C218.967 23.194 219.251 23.256 219.575 23.256C219.811 23.256 220.029 23.22 220.229 23.148C220.433 23.076 220.617 22.976 220.781 22.848C220.941 22.72 221.079 22.566 221.195 22.386C221.315 22.206 221.409 22.008 221.477 21.792L222.341 22.176ZM223.843 24V17.736H224.839V24H223.843ZM223.855 16.392C223.795 16.332 223.747 16.262 223.711 16.182C223.679 16.098 223.663 16.01 223.663 15.918C223.663 15.826 223.679 15.74 223.711 15.66C223.747 15.58 223.795 15.51 223.855 15.45C223.915 15.39 223.985 15.344 224.065 15.312C224.145 15.276 224.231 15.258 224.323 15.258C224.415 15.258 224.501 15.276 224.581 15.312C224.661 15.344 224.731 15.39 224.791 15.45C224.851 15.51 224.897 15.58 224.929 15.66C224.965 15.74 224.983 15.826 224.983 15.918C224.983 16.01 224.965 16.098 224.929 16.182C224.897 16.262 224.851 16.332 224.791 16.392C224.731 16.448 224.661 16.494 224.581 16.53C224.501 16.566 224.415 16.584 224.323 16.584C224.231 16.584 224.145 16.566 224.065 16.53C223.985 16.494 223.915 16.448 223.855 16.392ZM231.394 24V22.95C231.278 23.126 231.136 23.286 230.968 23.43C230.804 23.57 230.624 23.69 230.428 23.79C230.232 23.89 230.028 23.968 229.816 24.024C229.604 24.08 229.394 24.108 229.186 24.108C228.722 24.108 228.316 24.024 227.968 23.856C227.624 23.684 227.336 23.452 227.104 23.16C226.872 22.868 226.698 22.528 226.582 22.14C226.47 21.748 226.414 21.33 226.414 20.886C226.414 20.454 226.478 20.04 226.606 19.644C226.734 19.248 226.92 18.9 227.164 18.6C227.408 18.3 227.706 18.062 228.058 17.886C228.414 17.706 228.818 17.616 229.27 17.616C229.482 17.616 229.69 17.638 229.894 17.682C230.102 17.726 230.296 17.792 230.476 17.88C230.66 17.968 230.83 18.08 230.986 18.216C231.142 18.352 231.278 18.512 231.394 18.696V14.88H232.39V24H231.394ZM227.902 22.554C228.058 22.77 228.254 22.944 228.49 23.076C228.73 23.208 229.01 23.274 229.33 23.274C229.69 23.274 230 23.21 230.26 23.082C230.524 22.954 230.744 22.778 230.92 22.554C231.092 22.33 231.22 22.068 231.304 21.768C231.388 21.468 231.43 21.146 231.43 20.802C231.43 20.47 231.39 20.16 231.31 19.872C231.23 19.584 231.11 19.334 230.95 19.122C230.786 18.914 230.578 18.75 230.326 18.63C230.074 18.506 229.774 18.444 229.426 18.444C229.058 18.444 228.748 18.512 228.496 18.648C228.244 18.784 228.04 18.966 227.884 19.194C227.728 19.422 227.616 19.686 227.548 19.986C227.48 20.286 227.446 20.602 227.446 20.934C227.446 21.234 227.484 21.524 227.56 21.804C227.636 22.084 227.75 22.334 227.902 22.554ZM234.773 21.09C234.773 21.418 234.821 21.716 234.917 21.984C235.013 22.252 235.151 22.48 235.331 22.668C235.511 22.856 235.725 23.002 235.973 23.106C236.225 23.206 236.503 23.256 236.807 23.256C236.975 23.256 237.141 23.232 237.305 23.184C237.473 23.132 237.633 23.058 237.785 22.962C237.933 22.866 238.069 22.752 238.193 22.62C238.317 22.488 238.421 22.34 238.505 22.176L239.441 22.566C239.313 22.794 239.151 23.004 238.955 23.196C238.763 23.384 238.551 23.546 238.319 23.682C238.083 23.818 237.835 23.924 237.575 24C237.315 24.072 237.055 24.108 236.795 24.108C236.339 24.108 235.923 24.036 235.547 23.892C235.175 23.748 234.855 23.54 234.587 23.268C234.323 22.996 234.117 22.668 233.969 22.284C233.821 21.896 233.747 21.458 233.747 20.97V20.538C233.747 20.102 233.817 19.706 233.957 19.35C234.101 18.99 234.301 18.682 234.557 18.426C234.813 18.17 235.119 17.972 235.475 17.832C235.835 17.688 236.233 17.616 236.669 17.616C237.085 17.616 237.467 17.686 237.815 17.826C238.163 17.966 238.463 18.166 238.715 18.426C238.967 18.682 239.165 18.99 239.309 19.35C239.453 19.706 239.529 20.1 239.537 20.532L239.549 21.09H234.773ZM238.505 20.28C238.497 20.012 238.445 19.768 238.349 19.548C238.257 19.324 238.131 19.132 237.971 18.972C237.807 18.812 237.615 18.688 237.395 18.6C237.175 18.508 236.933 18.462 236.669 18.462C236.425 18.462 236.197 18.508 235.985 18.6C235.777 18.688 235.591 18.812 235.427 18.972C235.263 19.132 235.127 19.324 235.019 19.548C234.915 19.768 234.845 20.012 234.809 20.28H238.505ZM241.121 24V17.724H242.117V18.678C242.217 18.494 242.337 18.336 242.477 18.204C242.617 18.068 242.773 17.956 242.945 17.868C243.117 17.78 243.301 17.716 243.497 17.676C243.693 17.636 243.893 17.616 244.097 17.616C244.481 17.616 244.815 17.682 245.099 17.814C245.383 17.942 245.617 18.122 245.801 18.354C245.989 18.586 246.129 18.86 246.221 19.176C246.313 19.492 246.359 19.836 246.359 20.208V24H245.357V20.136C245.357 19.604 245.233 19.196 244.985 18.912C244.741 18.624 244.369 18.48 243.869 18.48C243.605 18.48 243.365 18.52 243.149 18.6C242.933 18.68 242.749 18.794 242.597 18.942C242.445 19.09 242.327 19.27 242.243 19.482C242.159 19.694 242.117 19.932 242.117 20.196V24H241.121ZM251.017 23.976C250.745 24.064 250.461 24.108 250.165 24.108C249.625 24.108 249.213 23.974 248.929 23.706C248.649 23.434 248.509 23.016 248.509 22.452V18.564H247.633V17.724H248.509V16.548L249.511 16.104V17.724H250.939V18.564H249.511V22.356C249.511 22.488 249.523 22.61 249.547 22.722C249.575 22.834 249.619 22.93 249.679 23.01C249.739 23.09 249.819 23.154 249.919 23.202C250.019 23.246 250.145 23.268 250.297 23.268C250.517 23.268 250.757 23.222 251.017 23.13V23.976Z" fill="black"/>
<path d="M1149.06 24.5V15.92H1154.2V16.772H1150.1V19.688H1153.45V20.54H1150.1V23.648H1154.41V24.5H1149.06ZM1155.28 24.5L1157.47 21.272L1155.43 18.224H1156.59L1158.07 20.486L1159.55 18.224H1160.62L1158.6 21.2L1160.83 24.5H1159.66L1158.03 21.986L1156.35 24.5H1155.28ZM1161.99 26.684V18.224H1162.98V19.244C1163.09 19.068 1163.23 18.91 1163.4 18.77C1163.56 18.63 1163.74 18.51 1163.94 18.41C1164.13 18.314 1164.33 18.242 1164.54 18.194C1164.75 18.142 1164.96 18.116 1165.16 18.116C1165.63 18.116 1166.04 18.202 1166.38 18.374C1166.74 18.542 1167.03 18.774 1167.26 19.07C1167.49 19.362 1167.67 19.702 1167.78 20.09C1167.9 20.478 1167.96 20.888 1167.96 21.32C1167.96 21.76 1167.9 22.18 1167.78 22.58C1167.66 22.976 1167.48 23.324 1167.25 23.624C1167.02 23.924 1166.73 24.164 1166.38 24.344C1166.04 24.52 1165.64 24.608 1165.2 24.608C1164.98 24.608 1164.76 24.584 1164.54 24.536C1164.33 24.492 1164.12 24.424 1163.93 24.332C1163.74 24.24 1163.56 24.126 1163.4 23.99C1163.24 23.85 1163.1 23.686 1162.98 23.498V26.684H1161.99ZM1163.46 23.09C1163.63 23.302 1163.85 23.47 1164.1 23.594C1164.36 23.714 1164.66 23.774 1165.01 23.774C1165.37 23.774 1165.68 23.708 1165.92 23.576C1166.17 23.444 1166.36 23.266 1166.52 23.042C1166.66 22.818 1166.77 22.558 1166.83 22.262C1166.9 21.962 1166.93 21.648 1166.93 21.32C1166.93 21.016 1166.89 20.722 1166.81 20.438C1166.73 20.15 1166.61 19.896 1166.45 19.676C1166.29 19.456 1166.09 19.28 1165.84 19.148C1165.6 19.012 1165.32 18.944 1165 18.944C1164.64 18.944 1164.33 19.01 1164.07 19.142C1163.82 19.274 1163.61 19.45 1163.44 19.67C1163.27 19.894 1163.15 20.154 1163.07 20.45C1162.99 20.742 1162.95 21.05 1162.95 21.374C1162.95 21.718 1162.99 22.036 1163.08 22.328C1163.16 22.62 1163.29 22.874 1163.46 23.09ZM1170.1 23.708C1169.83 23.424 1169.62 23.084 1169.47 22.688C1169.32 22.292 1169.25 21.854 1169.25 21.374C1169.25 20.894 1169.32 20.454 1169.47 20.054C1169.62 19.65 1169.83 19.306 1170.1 19.022C1170.38 18.734 1170.7 18.512 1171.08 18.356C1171.45 18.196 1171.87 18.116 1172.32 18.116C1172.77 18.116 1173.19 18.194 1173.56 18.35C1173.94 18.506 1174.26 18.726 1174.52 19.01C1174.79 19.294 1174.99 19.636 1175.14 20.036C1175.29 20.432 1175.36 20.87 1175.36 21.35C1175.36 21.83 1175.29 22.27 1175.14 22.67C1174.99 23.07 1174.79 23.414 1174.52 23.702C1174.26 23.986 1173.94 24.208 1173.56 24.368C1173.19 24.528 1172.77 24.608 1172.32 24.608C1171.87 24.608 1171.45 24.53 1171.08 24.374C1170.7 24.214 1170.38 23.992 1170.1 23.708ZM1170.85 23.09C1171.03 23.298 1171.24 23.46 1171.49 23.576C1171.74 23.688 1172.02 23.744 1172.32 23.744C1172.62 23.744 1172.9 23.688 1173.14 23.576C1173.39 23.46 1173.6 23.296 1173.78 23.084C1173.95 22.876 1174.09 22.626 1174.18 22.334C1174.28 22.042 1174.33 21.718 1174.33 21.362C1174.33 21.006 1174.28 20.68 1174.18 20.384C1174.09 20.088 1173.95 19.834 1173.78 19.622C1173.6 19.414 1173.39 19.252 1173.14 19.136C1172.9 19.016 1172.62 18.956 1172.32 18.956C1172.02 18.956 1171.74 19.016 1171.49 19.136C1171.24 19.252 1171.03 19.416 1170.85 19.628C1170.67 19.84 1170.53 20.094 1170.43 20.39C1170.33 20.682 1170.28 21.008 1170.28 21.368C1170.28 21.72 1170.33 22.042 1170.43 22.334C1170.53 22.626 1170.67 22.878 1170.85 23.09ZM1176.66 24.5V18.224H1177.65V19.304C1177.88 18.9 1178.15 18.602 1178.48 18.41C1178.81 18.214 1179.2 18.116 1179.67 18.116V19.058C1179.33 19.07 1179.04 19.114 1178.79 19.19C1178.53 19.262 1178.32 19.378 1178.16 19.538C1177.99 19.694 1177.86 19.896 1177.78 20.144C1177.69 20.392 1177.65 20.696 1177.65 21.056V24.5H1176.66ZM1183.78 24.476C1183.51 24.564 1183.23 24.608 1182.93 24.608C1182.39 24.608 1181.98 24.474 1181.69 24.206C1181.41 23.934 1181.27 23.516 1181.27 22.952V19.064H1180.4V18.224H1181.27V17.048L1182.28 16.604V18.224H1183.7V19.064H1182.28V22.856C1182.28 22.988 1182.29 23.11 1182.31 23.222C1182.34 23.334 1182.38 23.43 1182.44 23.51C1182.5 23.59 1182.58 23.654 1182.68 23.702C1182.78 23.746 1182.91 23.768 1183.06 23.768C1183.28 23.768 1183.52 23.722 1183.78 23.63V24.476ZM1189.23 21.32H1192.2L1190.71 16.91L1189.23 21.32ZM1187.2 24.5L1190.08 15.92H1191.35L1194.28 24.5H1193.24L1192.47 22.148H1188.96L1188.19 24.5H1187.2ZM1195.94 22.628C1196.05 22.996 1196.25 23.278 1196.52 23.474C1196.79 23.67 1197.11 23.768 1197.48 23.768C1197.65 23.768 1197.81 23.752 1197.97 23.72C1198.13 23.688 1198.28 23.634 1198.41 23.558C1198.54 23.482 1198.64 23.382 1198.72 23.258C1198.8 23.134 1198.84 22.978 1198.84 22.79C1198.84 22.598 1198.8 22.442 1198.71 22.322C1198.63 22.198 1198.53 22.096 1198.39 22.016C1198.25 21.932 1198.1 21.864 1197.92 21.812C1197.74 21.76 1197.55 21.71 1197.36 21.662C1197.12 21.606 1196.89 21.542 1196.65 21.47C1196.42 21.398 1196.21 21.3 1196.03 21.176C1195.84 21.048 1195.68 20.882 1195.56 20.678C1195.45 20.474 1195.39 20.208 1195.39 19.88C1195.39 19.604 1195.45 19.358 1195.56 19.142C1195.68 18.922 1195.84 18.736 1196.04 18.584C1196.23 18.432 1196.45 18.316 1196.69 18.236C1196.94 18.156 1197.19 18.116 1197.45 18.116C1197.68 18.116 1197.9 18.15 1198.12 18.218C1198.34 18.282 1198.54 18.376 1198.72 18.5C1198.9 18.624 1199.07 18.774 1199.22 18.95C1199.38 19.126 1199.51 19.322 1199.63 19.538L1198.86 19.886C1198.72 19.582 1198.52 19.35 1198.26 19.19C1198 19.03 1197.72 18.95 1197.41 18.95C1197.28 18.95 1197.14 18.968 1197.01 19.004C1196.88 19.036 1196.77 19.088 1196.66 19.16C1196.56 19.232 1196.47 19.326 1196.41 19.442C1196.35 19.554 1196.32 19.692 1196.32 19.856C1196.32 20.036 1196.36 20.186 1196.44 20.306C1196.52 20.422 1196.63 20.516 1196.76 20.588C1196.9 20.664 1197.06 20.726 1197.23 20.774C1197.41 20.822 1197.6 20.866 1197.79 20.906C1198.03 20.958 1198.27 21.018 1198.5 21.086C1198.74 21.15 1198.96 21.244 1199.15 21.368C1199.34 21.488 1199.49 21.65 1199.61 21.854C1199.73 22.058 1199.79 22.324 1199.79 22.652C1199.79 22.992 1199.73 23.284 1199.6 23.528C1199.47 23.772 1199.3 23.974 1199.09 24.134C1198.88 24.294 1198.64 24.414 1198.37 24.494C1198.1 24.57 1197.82 24.608 1197.53 24.608C1197.25 24.608 1196.98 24.572 1196.73 24.5C1196.49 24.432 1196.26 24.328 1196.06 24.188C1195.86 24.052 1195.68 23.882 1195.53 23.678C1195.38 23.474 1195.25 23.24 1195.16 22.976L1195.94 22.628Z" fill="black"/>
<path d="M1205 19L1208 22L1211 19" stroke="black" stroke-linecap="round" stroke-linejoin="round"/>
<path d="M1220 8H1246C1247.1 8 1248 8.89543 1248 10V30C1248 31.1046 1247.1 32 1246 32H1220V8Z" fill="white"/>
<path d="M1228 24.4386V15.5399C1228 15.1302 1228.17 14.738 1228.46 14.4495C1228.75 14.1612 1229.15 14 1229.57 14H1234.1L1234.18 14.0084C1234.27 14.0246 1234.34 14.0643 1234.4 14.1237L1237.8 17.4609C1237.93 17.5828 1237.96 17.7668 1237.9 17.9271C1237.83 18.0875 1237.67 18.1928 1237.5 18.1928H1234.1C1233.86 18.1928 1233.67 18.0011 1233.67 17.765V14.8556H1229.57C1229.38 14.8556 1229.2 14.929 1229.07 15.0578C1228.94 15.1864 1228.86 15.3598 1228.86 15.5399V24.4386C1228.86 24.6187 1228.94 24.792 1229.07 24.9207C1229.2 25.0495 1229.38 25.1229 1229.57 25.1229H1231.83C1232.07 25.1229 1232.26 25.3144 1232.26 25.5507C1232.26 25.787 1232.07 25.9785 1231.83 25.9785H1229.57C1229.15 25.9785 1228.75 25.8173 1228.46 25.529C1228.17 25.2405 1228 24.8482 1228 24.4386ZM1231.89 22.3422C1232.12 22.3422 1232.32 22.5337 1232.32 22.77C1232.32 23.0062 1232.12 23.1978 1231.89 23.1978H1230.7C1230.46 23.1978 1230.27 23.0062 1230.27 22.77C1230.27 22.5337 1230.46 22.3422 1230.7 22.3422H1231.89ZM1231.89 20.1179C1232.12 20.1179 1232.32 20.3095 1232.32 20.5457C1232.32 20.7818 1232.12 20.9735 1231.89 20.9735H1230.7C1230.46 20.9735 1230.27 20.7818 1230.27 20.5457C1230.27 20.3095 1230.46 20.1179 1230.7 20.1179H1231.89ZM1231.83 17.8928C1232.07 17.8928 1232.26 18.0845 1232.26 18.3206C1232.26 18.5569 1232.07 18.7484 1231.83 18.7484H1230.7C1230.46 18.7484 1230.27 18.5569 1230.27 18.3206C1230.27 18.0845 1230.46 17.8928 1230.7 17.8928H1231.83ZM1234.53 17.3372H1236.45L1234.53 15.453V17.3372Z" fill="black"/>
<path d="M1239.14 22.5776C1239.14 21.159 1237.98 20.0108 1236.55 20.0108C1235.13 20.0108 1233.97 21.159 1233.97 22.5776C1233.97 23.9962 1235.13 25.1444 1236.55 25.1444C1237.98 25.1444 1239.14 23.9962 1239.14 22.5776ZM1235.98 21.2465C1235.98 21.0104 1236.18 20.819 1236.41 20.8187C1236.65 20.8187 1236.85 21.0103 1236.85 21.2465V22.7564L1237.84 23.5802C1238.02 23.7318 1238.05 24.0015 1237.89 24.1827C1237.74 24.3639 1237.47 24.3883 1237.29 24.237L1236.14 23.2861C1236.04 23.2049 1235.98 23.0844 1235.98 22.9578V21.2465ZM1240 22.5776C1240 24.4667 1238.46 26 1236.55 26C1234.65 26 1233.11 24.4667 1233.11 22.5776C1233.11 20.6884 1234.65 19.1552 1236.55 19.1552C1238.46 19.1552 1240 20.6884 1240 22.5776Z" fill="black"/>
<path fill-rule="evenodd" clip-rule="evenodd" d="M1256 28V12H1257V28H1256Z" fill="#DCDCDC"/>
<rect x="1265" y="8" width="125" height="24" rx="2" fill="white"/>
<path d="M1279.5 27.0044V20.9956H1273.5C1273.22 20.9956 1273 20.7737 1273 20.5C1273 20.2263 1273.22 20.0044 1273.5 20.0044H1279.5V13.9956C1279.5 13.7219 1279.73 13.5 1280 13.5C1280.27 13.5 1280.5 13.7219 1280.5 13.9956V20.0044H1286.5C1286.78 20.0044 1287 20.2263 1287 20.5C1287 20.7737 1286.78 20.9956 1286.5 20.9956H1280.5V27.0044C1280.5 27.2781 1280.27 27.5 1280 27.5C1279.73 27.5 1279.5 27.2781 1279.5 27.0044Z" fill="black"/>
<path d="M1295.42 21.32H1298.39L1296.9 16.91L1295.42 21.32ZM1293.39 24.5L1296.26 15.92H1297.54L1300.46 24.5H1299.43L1298.66 22.148H1295.15L1294.37 24.5H1293.39ZM1306.28 24.5V23.45C1306.16 23.626 1306.02 23.786 1305.85 23.93C1305.69 24.07 1305.51 24.19 1305.31 24.29C1305.12 24.39 1304.91 24.468 1304.7 24.524C1304.49 24.58 1304.28 24.608 1304.07 24.608C1303.61 24.608 1303.2 24.524 1302.85 24.356C1302.51 24.184 1302.22 23.952 1301.99 23.66C1301.76 23.368 1301.58 23.028 1301.47 22.64C1301.35 22.248 1301.3 21.83 1301.3 21.386C1301.3 20.954 1301.36 20.54 1301.49 20.144C1301.62 19.748 1301.8 19.4 1302.05 19.1C1302.29 18.8 1302.59 18.562 1302.94 18.386C1303.3 18.206 1303.7 18.116 1304.15 18.116C1304.37 18.116 1304.57 18.138 1304.78 18.182C1304.99 18.226 1305.18 18.292 1305.36 18.38C1305.54 18.468 1305.71 18.58 1305.87 18.716C1306.03 18.852 1306.16 19.012 1306.28 19.196V15.38H1307.27V24.5H1306.28ZM1302.79 23.054C1302.94 23.27 1303.14 23.444 1303.37 23.576C1303.61 23.708 1303.89 23.774 1304.21 23.774C1304.57 23.774 1304.88 23.71 1305.14 23.582C1305.41 23.454 1305.63 23.278 1305.8 23.054C1305.98 22.83 1306.1 22.568 1306.19 22.268C1306.27 21.968 1306.31 21.646 1306.31 21.302C1306.31 20.97 1306.27 20.66 1306.19 20.372C1306.11 20.084 1305.99 19.834 1305.83 19.622C1305.67 19.414 1305.46 19.25 1305.21 19.13C1304.96 19.006 1304.66 18.944 1304.31 18.944C1303.94 18.944 1303.63 19.012 1303.38 19.148C1303.13 19.284 1302.92 19.466 1302.77 19.694C1302.61 19.922 1302.5 20.186 1302.43 20.486C1302.36 20.786 1302.33 21.102 1302.33 21.434C1302.33 21.734 1302.37 22.024 1302.44 22.304C1302.52 22.584 1302.63 22.834 1302.79 23.054ZM1313.71 24.5V23.45C1313.59 23.626 1313.45 23.786 1313.28 23.93C1313.12 24.07 1312.94 24.19 1312.74 24.29C1312.54 24.39 1312.34 24.468 1312.13 24.524C1311.92 24.58 1311.71 24.608 1311.5 24.608C1311.03 24.608 1310.63 24.524 1310.28 24.356C1309.94 24.184 1309.65 23.952 1309.42 23.66C1309.18 23.368 1309.01 23.028 1308.89 22.64C1308.78 22.248 1308.73 21.83 1308.73 21.386C1308.73 20.954 1308.79 20.54 1308.92 20.144C1309.05 19.748 1309.23 19.4 1309.48 19.1C1309.72 18.8 1310.02 18.562 1310.37 18.386C1310.73 18.206 1311.13 18.116 1311.58 18.116C1311.79 18.116 1312 18.138 1312.21 18.182C1312.41 18.226 1312.61 18.292 1312.79 18.38C1312.97 18.468 1313.14 18.58 1313.3 18.716C1313.45 18.852 1313.59 19.012 1313.71 19.196V15.38H1314.7V24.5H1313.71ZM1310.21 23.054C1310.37 23.27 1310.57 23.444 1310.8 23.576C1311.04 23.708 1311.32 23.774 1311.64 23.774C1312 23.774 1312.31 23.71 1312.57 23.582C1312.84 23.454 1313.06 23.278 1313.23 23.054C1313.4 22.83 1313.53 22.568 1313.62 22.268C1313.7 21.968 1313.74 21.646 1313.74 21.302C1313.74 20.97 1313.7 20.66 1313.62 20.372C1313.54 20.084 1313.42 19.834 1313.26 19.622C1313.1 19.414 1312.89 19.25 1312.64 19.13C1312.39 19.006 1312.09 18.944 1311.74 18.944C1311.37 18.944 1311.06 19.012 1310.81 19.148C1310.56 19.284 1310.35 19.466 1310.2 19.694C1310.04 19.922 1309.93 20.186 1309.86 20.486C1309.79 20.786 1309.76 21.102 1309.76 21.434C1309.76 21.734 1309.8 22.024 1309.87 22.304C1309.95 22.584 1310.06 22.834 1310.21 23.054ZM1320.64 21.32H1323.61L1322.12 16.91L1320.64 21.32ZM1318.61 24.5L1321.48 15.92H1322.76L1325.68 24.5H1324.64L1323.88 22.148H1320.37L1319.59 24.5H1318.61ZM1327.04 24.5V15.428L1328.05 14.972V24.5H1327.04ZM1330.47 21.59C1330.47 21.918 1330.52 22.216 1330.61 22.484C1330.71 22.752 1330.85 22.98 1331.03 23.168C1331.21 23.356 1331.42 23.502 1331.67 23.606C1331.92 23.706 1332.2 23.756 1332.5 23.756C1332.67 23.756 1332.84 23.732 1333 23.684C1333.17 23.632 1333.33 23.558 1333.48 23.462C1333.63 23.366 1333.76 23.252 1333.89 23.12C1334.01 22.988 1334.12 22.84 1334.2 22.676L1335.14 23.066C1335.01 23.294 1334.85 23.504 1334.65 23.696C1334.46 23.884 1334.25 24.046 1334.01 24.182C1333.78 24.318 1333.53 24.424 1333.27 24.5C1333.01 24.572 1332.75 24.608 1332.49 24.608C1332.03 24.608 1331.62 24.536 1331.24 24.392C1330.87 24.248 1330.55 24.04 1330.28 23.768C1330.02 23.496 1329.81 23.168 1329.66 22.784C1329.52 22.396 1329.44 21.958 1329.44 21.47V21.038C1329.44 20.602 1329.51 20.206 1329.65 19.85C1329.8 19.49 1330 19.182 1330.25 18.926C1330.51 18.67 1330.81 18.472 1331.17 18.332C1331.53 18.188 1331.93 18.116 1332.36 18.116C1332.78 18.116 1333.16 18.186 1333.51 18.326C1333.86 18.466 1334.16 18.666 1334.41 18.926C1334.66 19.182 1334.86 19.49 1335 19.85C1335.15 20.206 1335.22 20.6 1335.23 21.032L1335.24 21.59H1330.47ZM1334.2 20.78C1334.19 20.512 1334.14 20.268 1334.04 20.048C1333.95 19.824 1333.83 19.632 1333.67 19.472C1333.5 19.312 1333.31 19.188 1333.09 19.1C1332.87 19.008 1332.63 18.962 1332.36 18.962C1332.12 18.962 1331.89 19.008 1331.68 19.1C1331.47 19.188 1331.29 19.312 1331.12 19.472C1330.96 19.632 1330.82 19.824 1330.71 20.048C1330.61 20.268 1330.54 20.512 1330.5 20.78H1334.2ZM1336.53 24.5V18.224H1337.52V19.304C1337.75 18.9 1338.02 18.602 1338.35 18.41C1338.68 18.214 1339.08 18.116 1339.54 18.116V19.058C1339.2 19.07 1338.91 19.114 1338.66 19.19C1338.41 19.262 1338.2 19.378 1338.03 19.538C1337.86 19.694 1337.73 19.896 1337.65 20.144C1337.57 20.392 1337.52 20.696 1337.52 21.056V24.5H1336.53ZM1343.65 24.476C1343.38 24.564 1343.1 24.608 1342.8 24.608C1342.26 24.608 1341.85 24.474 1341.57 24.206C1341.29 23.934 1341.15 23.516 1341.15 22.952V19.064H1340.27V18.224H1341.15V17.048L1342.15 16.604V18.224H1343.58V19.064H1342.15V22.856C1342.15 22.988 1342.16 23.11 1342.18 23.222C1342.21 23.334 1342.26 23.43 1342.32 23.51C1342.38 23.59 1342.46 23.654 1342.56 23.702C1342.66 23.746 1342.78 23.768 1342.93 23.768C1343.15 23.768 1343.39 23.722 1343.65 23.63V24.476ZM1347.76 24.5V15.92H1350.51C1350.92 15.92 1351.3 15.984 1351.65 16.112C1351.99 16.236 1352.29 16.414 1352.54 16.646C1352.79 16.874 1352.98 17.148 1353.12 17.468C1353.25 17.784 1353.32 18.136 1353.32 18.524C1353.32 18.896 1353.25 19.236 1353.12 19.544C1352.98 19.848 1352.79 20.11 1352.55 20.33C1352.3 20.546 1352.01 20.716 1351.66 20.84C1351.32 20.96 1350.95 21.02 1350.54 21.02L1348.8 21.008V24.5H1347.76ZM1348.8 20.18H1350.51C1350.77 20.18 1351.01 20.138 1351.23 20.054C1351.44 19.97 1351.63 19.852 1351.78 19.7C1351.94 19.548 1352.06 19.366 1352.14 19.154C1352.23 18.938 1352.28 18.702 1352.28 18.446C1352.28 18.198 1352.23 17.97 1352.14 17.762C1352.06 17.554 1351.94 17.376 1351.78 17.228C1351.63 17.08 1351.44 16.966 1351.23 16.886C1351.01 16.802 1350.77 16.76 1350.51 16.76H1348.8V20.18ZM1354.49 24.5V18.224H1355.49V19.304C1355.71 18.9 1355.99 18.602 1356.32 18.41C1356.64 18.214 1357.04 18.116 1357.5 18.116V19.058C1357.17 19.07 1356.87 19.114 1356.62 19.19C1356.37 19.262 1356.16 19.378 1355.99 19.538C1355.82 19.694 1355.7 19.896 1355.61 20.144C1355.53 20.392 1355.49 20.696 1355.49 21.056V24.5H1354.49ZM1358.83 23.708C1358.56 23.424 1358.34 23.084 1358.19 22.688C1358.04 22.292 1357.97 21.854 1357.97 21.374C1357.97 20.894 1358.04 20.454 1358.19 20.054C1358.34 19.65 1358.56 19.306 1358.83 19.022C1359.1 18.734 1359.42 18.512 1359.8 18.356C1360.18 18.196 1360.59 18.116 1361.04 18.116C1361.5 18.116 1361.91 18.194 1362.28 18.35C1362.66 18.506 1362.98 18.726 1363.24 19.01C1363.51 19.294 1363.72 19.636 1363.86 20.036C1364.01 20.432 1364.08 20.87 1364.08 21.35C1364.08 21.83 1364.01 22.27 1363.86 22.67C1363.72 23.07 1363.51 23.414 1363.24 23.702C1362.98 23.986 1362.66 24.208 1362.28 24.368C1361.91 24.528 1361.5 24.608 1361.04 24.608C1360.59 24.608 1360.18 24.53 1359.8 24.374C1359.42 24.214 1359.1 23.992 1358.83 23.708ZM1359.57 23.09C1359.75 23.298 1359.97 23.46 1360.21 23.576C1360.47 23.688 1360.74 23.744 1361.04 23.744C1361.35 23.744 1361.62 23.688 1361.86 23.576C1362.11 23.46 1362.32 23.296 1362.5 23.084C1362.68 22.876 1362.81 22.626 1362.91 22.334C1363 22.042 1363.05 21.718 1363.05 21.362C1363.05 21.006 1363 20.68 1362.91 20.384C1362.81 20.088 1362.68 19.834 1362.5 19.622C1362.32 19.414 1362.11 19.252 1361.86 19.136C1361.62 19.016 1361.35 18.956 1361.04 18.956C1360.74 18.956 1360.47 19.016 1360.21 19.136C1359.97 19.252 1359.75 19.416 1359.57 19.628C1359.39 19.84 1359.25 20.094 1359.15 20.39C1359.05 20.682 1359 21.008 1359 21.368C1359 21.72 1359.05 22.042 1359.15 22.334C1359.25 22.626 1359.39 22.878 1359.57 23.09ZM1366.05 24.5V19.064H1365.18V18.224H1366.05V17.948C1366.05 17.592 1366.07 17.252 1366.1 16.928C1366.12 16.604 1366.2 16.32 1366.32 16.076C1366.44 15.828 1366.63 15.632 1366.88 15.488C1367.12 15.344 1367.47 15.272 1367.91 15.272C1368.05 15.272 1368.19 15.282 1368.33 15.302C1368.47 15.318 1368.61 15.348 1368.75 15.392L1368.44 16.16C1368.34 16.144 1368.26 16.132 1368.17 16.124C1368.09 16.116 1368.02 16.112 1367.95 16.112C1367.78 16.112 1367.64 16.138 1367.52 16.19C1367.41 16.242 1367.32 16.316 1367.25 16.412C1367.18 16.508 1367.13 16.622 1367.1 16.754C1367.07 16.882 1367.06 17.024 1367.06 17.18V18.224H1368.55V19.064H1367.06V24.5H1366.05ZM1370.13 24.5V18.236H1371.12V24.5H1370.13ZM1370.14 16.892C1370.08 16.832 1370.03 16.762 1370 16.682C1369.96 16.598 1369.95 16.51 1369.95 16.418C1369.95 16.326 1369.96 16.24 1370 16.16C1370.03 16.08 1370.08 16.01 1370.14 15.95C1370.2 15.89 1370.27 15.844 1370.35 15.812C1370.43 15.776 1370.52 15.758 1370.61 15.758C1370.7 15.758 1370.79 15.776 1370.87 15.812C1370.95 15.844 1371.02 15.89 1371.08 15.95C1371.14 16.01 1371.18 16.08 1371.21 16.16C1371.25 16.24 1371.27 16.326 1371.27 16.418C1371.27 16.51 1371.25 16.598 1371.21 16.682C1371.18 16.762 1371.14 16.832 1371.08 16.892C1371.02 16.948 1370.95 16.994 1370.87 17.03C1370.79 17.066 1370.7 17.084 1370.61 17.084C1370.52 17.084 1370.43 17.066 1370.35 17.03C1370.27 16.994 1370.2 16.948 1370.14 16.892ZM1373.22 24.5V15.428L1374.23 14.972V24.5H1373.22ZM1376.65 21.59C1376.65 21.918 1376.7 22.216 1376.8 22.484C1376.89 22.752 1377.03 22.98 1377.21 23.168C1377.39 23.356 1377.6 23.502 1377.85 23.606C1378.1 23.706 1378.38 23.756 1378.69 23.756C1378.85 23.756 1379.02 23.732 1379.18 23.684C1379.35 23.632 1379.51 23.558 1379.66 23.462C1379.81 23.366 1379.95 23.252 1380.07 23.12C1380.2 22.988 1380.3 22.84 1380.38 22.676L1381.32 23.066C1381.19 23.294 1381.03 23.504 1380.83 23.696C1380.64 23.884 1380.43 24.046 1380.2 24.182C1379.96 24.318 1379.71 24.424 1379.45 24.5C1379.19 24.572 1378.93 24.608 1378.67 24.608C1378.22 24.608 1377.8 24.536 1377.43 24.392C1377.05 24.248 1376.73 24.04 1376.47 23.768C1376.2 23.496 1376 23.168 1375.85 22.784C1375.7 22.396 1375.63 21.958 1375.63 21.47V21.038C1375.63 20.602 1375.7 20.206 1375.84 19.85C1375.98 19.49 1376.18 19.182 1376.44 18.926C1376.69 18.67 1377 18.472 1377.35 18.332C1377.71 18.188 1378.11 18.116 1378.55 18.116C1378.96 18.116 1379.35 18.186 1379.69 18.326C1380.04 18.466 1380.34 18.666 1380.59 18.926C1380.85 19.182 1381.04 19.49 1381.19 19.85C1381.33 20.206 1381.41 20.6 1381.42 21.032L1381.43 21.59H1376.65ZM1380.38 20.78C1380.38 20.512 1380.32 20.268 1380.23 20.048C1380.14 19.824 1380.01 19.632 1379.85 19.472C1379.69 19.312 1379.49 19.188 1379.27 19.1C1379.05 19.008 1378.81 18.962 1378.55 18.962C1378.3 18.962 1378.08 19.008 1377.86 19.1C1377.66 19.188 1377.47 19.312 1377.31 19.472C1377.14 19.632 1377.01 19.824 1376.9 20.048C1376.79 20.268 1376.72 20.512 1376.69 20.78H1380.38Z" fill="black"/>
<rect x="1398" y="8" width="153" height="24" rx="2" fill="white"/>
<g clip-path="url(#clip0_993_231305)">
<path d="M1406 25.7002V15.2998C1406 14.8225 1406.19 14.3649 1406.53 14.0273C1406.88 13.6898 1407.34 13.5001 1407.82 13.5H1413.08L1413.18 13.5098C1413.28 13.5289 1413.37 13.5761 1413.44 13.6465L1417.39 17.5469C1417.53 17.6899 1417.58 17.9051 1417.5 18.0918C1417.42 18.2784 1417.23 18.4002 1417.03 18.4004H1413.08C1412.8 18.4004 1412.58 18.1764 1412.58 17.9004V14.5H1407.82C1407.61 14.5001 1407.4 14.5844 1407.25 14.7344C1407.1 14.8844 1407.01 15.0877 1407.01 15.2998V25.7002C1407.01 25.9123 1407.1 26.1156 1407.25 26.2656C1407.4 26.4156 1407.61 26.4999 1407.82 26.5H1410.45C1410.73 26.5002 1410.96 26.724 1410.96 27C1410.96 27.276 1410.73 27.4998 1410.45 27.5H1407.82C1407.34 27.4999 1406.88 27.3102 1406.53 26.9727C1406.19 26.6351 1406 26.1775 1406 25.7002ZM1411.52 23.25C1411.8 23.25 1412.02 23.4739 1412.02 23.75C1412.02 24.0261 1411.8 24.25 1411.52 24.25H1409.14C1408.86 24.2498 1408.63 24.026 1408.63 23.75C1408.63 23.474 1408.86 23.2502 1409.14 23.25H1411.52ZM1412.52 20.6504C1412.8 20.6504 1413.03 20.8742 1413.03 21.1504C1413.03 21.4264 1412.8 21.6504 1412.52 21.6504H1409.14C1408.86 21.6502 1408.63 21.4262 1408.63 21.1504C1408.63 20.8744 1408.86 20.6506 1409.14 20.6504H1412.52ZM1410.45 18.0498C1410.73 18.05 1410.96 18.2739 1410.96 18.5498C1410.96 18.8258 1410.73 19.0496 1410.45 19.0498H1409.14C1408.86 19.0496 1408.63 18.8258 1408.63 18.5498C1408.63 18.2739 1408.86 18.05 1409.14 18.0498H1410.45ZM1413.59 17.4004H1415.81L1413.59 15.207V17.4004Z" fill="black"/>
<path d="M1417.02 25.8418C1417.11 25.58 1417.39 25.4383 1417.66 25.5254C1417.92 25.6127 1418.06 25.8962 1417.97 26.1582C1417.85 26.5151 1417.67 26.8419 1417.43 27.0859C1417.18 27.3326 1416.86 27.5 1416.5 27.5C1416.13 27.4999 1415.81 27.3326 1415.57 27.0859C1415.32 26.8419 1415.14 26.5151 1415.02 26.1582C1414.94 25.8964 1415.08 25.6129 1415.34 25.5254C1415.6 25.4381 1415.88 25.5799 1415.97 25.8418C1416.06 26.0927 1416.17 26.2718 1416.27 26.3789C1416.38 26.4825 1416.46 26.4999 1416.5 26.5C1416.54 26.5 1416.62 26.4827 1416.72 26.3789C1416.83 26.2719 1416.94 26.0929 1417.02 25.8418ZM1416.5 19.5C1417.16 19.5 1417.8 19.7637 1418.27 20.2324C1418.74 20.7013 1419 21.337 1419 22C1419 22.6973 1419.11 23.1163 1419.24 23.3984C1419.34 23.6108 1419.47 23.7673 1419.61 23.9287L1419.77 24.0938L1419.78 24.1055C1419.86 24.195 1419.92 24.3014 1419.96 24.416L1419.99 24.5332L1420 24.6533C1420 24.7734 1419.98 24.8932 1419.93 25.0039C1419.86 25.1515 1419.76 25.2772 1419.62 25.3652C1419.49 25.4531 1419.33 25.4999 1419.17 25.5H1413.83C1413.67 25.4999 1413.51 25.4525 1413.38 25.3643C1413.24 25.2761 1413.13 25.1505 1413.07 25.0029C1413 24.8552 1412.98 24.6916 1413.01 24.5322L1413.04 24.415C1413.07 24.3005 1413.13 24.1949 1413.22 24.1055L1413.22 24.0938C1413.45 23.8649 1413.62 23.6817 1413.75 23.3984C1413.89 23.1163 1414 22.6975 1414 22C1414 21.337 1414.26 20.7013 1414.73 20.2324C1415.2 19.7637 1415.84 19.5 1416.5 19.5ZM1416.5 20.5C1416.1 20.5 1415.72 20.6582 1415.44 20.9395C1415.16 21.2208 1415 21.6022 1415 22C1415 22.8022 1414.87 23.3764 1414.66 23.8262C1414.53 24.1056 1414.37 24.321 1414.21 24.5H1418.79C1418.63 24.3209 1418.47 24.1057 1418.34 23.8262C1418.12 23.3763 1418 22.8021 1418 22C1418 21.6022 1417.84 21.2208 1417.56 20.9395C1417.28 20.6582 1416.9 20.5 1416.5 20.5Z" fill="black"/>
</g>
<path d="M1427.1 24.5V15.92H1428.61L1431.28 22.694L1433.85 15.92H1435.29V24.5H1434.24V17.342L1431.49 24.5H1431.03L1428.13 17.336V24.5H1427.1ZM1440.48 24.5V23.768C1440.36 23.908 1440.24 24.03 1440.09 24.134C1439.95 24.238 1439.79 24.326 1439.63 24.398C1439.46 24.466 1439.29 24.518 1439.11 24.554C1438.93 24.59 1438.75 24.608 1438.57 24.608C1438.26 24.608 1437.99 24.564 1437.73 24.476C1437.48 24.388 1437.27 24.264 1437.09 24.104C1436.91 23.94 1436.77 23.746 1436.67 23.522C1436.58 23.298 1436.53 23.048 1436.53 22.772C1436.53 22.128 1436.79 21.642 1437.32 21.314C1437.85 20.982 1438.63 20.816 1439.66 20.816H1440.48V20.474C1440.48 20.234 1440.44 20.02 1440.38 19.832C1440.32 19.644 1440.22 19.486 1440.1 19.358C1439.99 19.226 1439.85 19.126 1439.68 19.058C1439.51 18.99 1439.32 18.956 1439.11 18.956C1438.93 18.956 1438.76 18.982 1438.6 19.034C1438.43 19.082 1438.28 19.154 1438.14 19.25C1438.01 19.346 1437.89 19.462 1437.78 19.598C1437.68 19.73 1437.6 19.88 1437.55 20.048L1436.68 19.664C1436.79 19.404 1436.92 19.178 1437.09 18.986C1437.26 18.79 1437.45 18.628 1437.66 18.5C1437.87 18.372 1438.1 18.276 1438.35 18.212C1438.59 18.148 1438.85 18.116 1439.12 18.116C1439.47 18.116 1439.79 18.168 1440.08 18.272C1440.37 18.372 1440.62 18.52 1440.84 18.716C1441.05 18.912 1441.21 19.15 1441.33 19.43C1441.45 19.71 1441.51 20.028 1441.51 20.384V24.5H1440.48ZM1440.5 21.62H1439.66C1439.34 21.62 1439.05 21.644 1438.79 21.692C1438.53 21.74 1438.31 21.812 1438.13 21.908C1437.95 22.004 1437.8 22.124 1437.7 22.268C1437.61 22.408 1437.56 22.572 1437.56 22.76C1437.56 23.108 1437.65 23.372 1437.83 23.552C1438.01 23.728 1438.29 23.816 1438.66 23.816C1438.88 23.816 1439.09 23.784 1439.31 23.72C1439.52 23.652 1439.71 23.554 1439.88 23.426C1440.05 23.302 1440.19 23.146 1440.3 22.958C1440.41 22.766 1440.47 22.548 1440.48 22.304L1440.5 21.62ZM1443.47 24.5V18.224H1444.47V19.178C1444.57 18.994 1444.69 18.836 1444.83 18.704C1444.97 18.568 1445.12 18.456 1445.3 18.368C1445.47 18.28 1445.65 18.216 1445.85 18.176C1446.04 18.136 1446.24 18.116 1446.45 18.116C1446.83 18.116 1447.17 18.182 1447.45 18.314C1447.73 18.442 1447.97 18.622 1448.15 18.854C1448.34 19.086 1448.48 19.36 1448.57 19.676C1448.66 19.992 1448.71 20.336 1448.71 20.708V24.5H1447.71V20.636C1447.71 20.104 1447.58 19.696 1447.34 19.412C1447.09 19.124 1446.72 18.98 1446.22 18.98C1445.96 18.98 1445.72 19.02 1445.5 19.1C1445.28 19.18 1445.1 19.294 1444.95 19.442C1444.8 19.59 1444.68 19.77 1444.59 19.982C1444.51 20.194 1444.47 20.432 1444.47 20.696V24.5H1443.47ZM1454.06 24.5V23.768C1453.95 23.908 1453.82 24.03 1453.67 24.134C1453.53 24.238 1453.38 24.326 1453.21 24.398C1453.04 24.466 1452.87 24.518 1452.69 24.554C1452.51 24.59 1452.33 24.608 1452.15 24.608C1451.85 24.608 1451.57 24.564 1451.32 24.476C1451.06 24.388 1450.85 24.264 1450.67 24.104C1450.49 23.94 1450.35 23.746 1450.25 23.522C1450.16 23.298 1450.11 23.048 1450.11 22.772C1450.11 22.128 1450.37 21.642 1450.9 21.314C1451.43 20.982 1452.21 20.816 1453.24 20.816H1454.06V20.474C1454.06 20.234 1454.03 20.02 1453.96 19.832C1453.9 19.644 1453.81 19.486 1453.69 19.358C1453.57 19.226 1453.43 19.126 1453.26 19.058C1453.09 18.99 1452.9 18.956 1452.7 18.956C1452.52 18.956 1452.34 18.982 1452.18 19.034C1452.02 19.082 1451.86 19.154 1451.72 19.25C1451.59 19.346 1451.47 19.462 1451.36 19.598C1451.26 19.73 1451.19 19.88 1451.13 20.048L1450.26 19.664C1450.37 19.404 1450.51 19.178 1450.67 18.986C1450.84 18.79 1451.03 18.628 1451.24 18.5C1451.45 18.372 1451.68 18.276 1451.93 18.212C1452.18 18.148 1452.43 18.116 1452.7 18.116C1453.05 18.116 1453.37 18.168 1453.66 18.272C1453.95 18.372 1454.21 18.52 1454.42 18.716C1454.63 18.912 1454.79 19.15 1454.91 19.43C1455.03 19.71 1455.09 20.028 1455.09 20.384V24.5H1454.06ZM1454.08 21.62H1453.24C1452.92 21.62 1452.63 21.644 1452.37 21.692C1452.11 21.74 1451.89 21.812 1451.71 21.908C1451.53 22.004 1451.39 22.124 1451.29 22.268C1451.19 22.408 1451.14 22.572 1451.14 22.76C1451.14 23.108 1451.23 23.372 1451.41 23.552C1451.6 23.728 1451.87 23.816 1452.24 23.816C1452.46 23.816 1452.68 23.784 1452.89 23.72C1453.1 23.652 1453.29 23.554 1453.46 23.426C1453.64 23.302 1453.78 23.146 1453.88 22.958C1453.99 22.766 1454.05 22.548 1454.06 22.304L1454.08 21.62ZM1457.49 24.914C1457.58 25.11 1457.7 25.274 1457.84 25.406C1457.99 25.538 1458.15 25.644 1458.33 25.724C1458.51 25.804 1458.69 25.862 1458.88 25.898C1459.08 25.934 1459.27 25.952 1459.47 25.952C1459.76 25.952 1460.04 25.912 1460.29 25.832C1460.54 25.752 1460.77 25.63 1460.95 25.466C1461.14 25.306 1461.29 25.104 1461.39 24.86C1461.5 24.62 1461.55 24.338 1461.55 24.014V23.126C1461.43 23.306 1461.29 23.468 1461.13 23.612C1460.97 23.756 1460.79 23.88 1460.6 23.984C1460.41 24.084 1460.21 24.162 1460 24.218C1459.79 24.27 1459.58 24.296 1459.37 24.296C1458.94 24.296 1458.56 24.216 1458.21 24.056C1457.87 23.892 1457.57 23.672 1457.33 23.396C1457.09 23.12 1456.9 22.8 1456.77 22.436C1456.63 22.068 1456.57 21.678 1456.57 21.266C1456.57 20.838 1456.64 20.434 1456.78 20.054C1456.92 19.674 1457.11 19.34 1457.37 19.052C1457.62 18.764 1457.92 18.536 1458.27 18.368C1458.62 18.2 1459.01 18.116 1459.44 18.116C1459.64 18.116 1459.85 18.138 1460.05 18.182C1460.26 18.226 1460.45 18.294 1460.64 18.386C1460.82 18.478 1460.98 18.592 1461.14 18.728C1461.3 18.864 1461.43 19.022 1461.55 19.202V18.224H1462.54V24.074C1462.54 24.53 1462.46 24.928 1462.3 25.268C1462.13 25.608 1461.91 25.892 1461.63 26.12C1461.35 26.344 1461.02 26.512 1460.64 26.624C1460.27 26.736 1459.87 26.792 1459.44 26.792C1459.16 26.792 1458.88 26.766 1458.61 26.714C1458.34 26.662 1458.09 26.576 1457.85 26.456C1457.61 26.336 1457.39 26.178 1457.2 25.982C1457 25.79 1456.84 25.552 1456.7 25.268L1457.49 24.914ZM1458.13 22.79C1458.31 22.994 1458.51 23.156 1458.75 23.276C1458.98 23.396 1459.24 23.456 1459.53 23.456C1459.86 23.456 1460.15 23.396 1460.4 23.276C1460.66 23.156 1460.87 22.992 1461.05 22.784C1461.22 22.58 1461.35 22.338 1461.45 22.058C1461.54 21.778 1461.58 21.476 1461.58 21.152C1461.58 20.84 1461.54 20.55 1461.45 20.282C1461.36 20.014 1461.24 19.78 1461.07 19.58C1460.9 19.384 1460.7 19.23 1460.46 19.118C1460.21 19.006 1459.93 18.95 1459.62 18.95C1459.29 18.95 1459 19.014 1458.74 19.142C1458.49 19.266 1458.28 19.434 1458.11 19.646C1457.94 19.862 1457.81 20.11 1457.73 20.39C1457.64 20.67 1457.6 20.966 1457.6 21.278C1457.6 21.562 1457.65 21.836 1457.74 22.1C1457.83 22.36 1457.97 22.59 1458.13 22.79ZM1464.94 21.59C1464.94 21.918 1464.99 22.216 1465.09 22.484C1465.18 22.752 1465.32 22.98 1465.5 23.168C1465.68 23.356 1465.9 23.502 1466.14 23.606C1466.4 23.706 1466.67 23.756 1466.98 23.756C1467.15 23.756 1467.31 23.732 1467.48 23.684C1467.64 23.632 1467.8 23.558 1467.96 23.462C1468.1 23.366 1468.24 23.252 1468.36 23.12C1468.49 22.988 1468.59 22.84 1468.68 22.676L1469.61 23.066C1469.48 23.294 1469.32 23.504 1469.13 23.696C1468.93 23.884 1468.72 24.046 1468.49 24.182C1468.25 24.318 1468.01 24.424 1467.75 24.5C1467.49 24.572 1467.23 24.608 1466.97 24.608C1466.51 24.608 1466.09 24.536 1465.72 24.392C1465.35 24.248 1465.03 24.04 1464.76 23.768C1464.49 23.496 1464.29 23.168 1464.14 22.784C1463.99 22.396 1463.92 21.958 1463.92 21.47V21.038C1463.92 20.602 1463.99 20.206 1464.13 19.85C1464.27 19.49 1464.47 19.182 1464.73 18.926C1464.98 18.67 1465.29 18.472 1465.65 18.332C1466.01 18.188 1466.4 18.116 1466.84 18.116C1467.26 18.116 1467.64 18.186 1467.99 18.326C1468.33 18.466 1468.63 18.666 1468.89 18.926C1469.14 19.182 1469.34 19.49 1469.48 19.85C1469.62 20.206 1469.7 20.6 1469.71 21.032L1469.72 21.59H1464.94ZM1468.68 20.78C1468.67 20.512 1468.62 20.268 1468.52 20.048C1468.43 19.824 1468.3 19.632 1468.14 19.472C1467.98 19.312 1467.79 19.188 1467.57 19.1C1467.35 19.008 1467.1 18.962 1466.84 18.962C1466.6 18.962 1466.37 19.008 1466.16 19.1C1465.95 19.188 1465.76 19.312 1465.6 19.472C1465.43 19.632 1465.3 19.824 1465.19 20.048C1465.09 20.268 1465.02 20.512 1464.98 20.78H1468.68ZM1475.19 21.32H1478.16L1476.67 16.91L1475.19 21.32ZM1473.16 24.5L1476.03 15.92H1477.31L1480.23 24.5H1479.2L1478.43 22.148H1474.92L1474.14 24.5H1473.16ZM1481.59 24.5V15.428L1482.6 14.972V24.5H1481.59ZM1485.02 21.59C1485.02 21.918 1485.07 22.216 1485.16 22.484C1485.26 22.752 1485.4 22.98 1485.58 23.168C1485.76 23.356 1485.97 23.502 1486.22 23.606C1486.47 23.706 1486.75 23.756 1487.05 23.756C1487.22 23.756 1487.39 23.732 1487.55 23.684C1487.72 23.632 1487.88 23.558 1488.03 23.462C1488.18 23.366 1488.31 23.252 1488.44 23.12C1488.56 22.988 1488.67 22.84 1488.75 22.676L1489.69 23.066C1489.56 23.294 1489.4 23.504 1489.2 23.696C1489.01 23.884 1488.8 24.046 1488.56 24.182C1488.33 24.318 1488.08 24.424 1487.82 24.5C1487.56 24.572 1487.3 24.608 1487.04 24.608C1486.58 24.608 1486.17 24.536 1485.79 24.392C1485.42 24.248 1485.1 24.04 1484.83 23.768C1484.57 23.496 1484.36 23.168 1484.21 22.784C1484.07 22.396 1483.99 21.958 1483.99 21.47V21.038C1483.99 20.602 1484.06 20.206 1484.2 19.85C1484.35 19.49 1484.55 19.182 1484.8 18.926C1485.06 18.67 1485.36 18.472 1485.72 18.332C1486.08 18.188 1486.48 18.116 1486.91 18.116C1487.33 18.116 1487.71 18.186 1488.06 18.326C1488.41 18.466 1488.71 18.666 1488.96 18.926C1489.21 19.182 1489.41 19.49 1489.55 19.85C1489.7 20.206 1489.77 20.6 1489.78 21.032L1489.79 21.59H1485.02ZM1488.75 20.78C1488.74 20.512 1488.69 20.268 1488.59 20.048C1488.5 19.824 1488.38 19.632 1488.22 19.472C1488.05 19.312 1487.86 19.188 1487.64 19.1C1487.42 19.008 1487.18 18.962 1486.91 18.962C1486.67 18.962 1486.44 19.008 1486.23 19.1C1486.02 19.188 1485.84 19.312 1485.67 19.472C1485.51 19.632 1485.37 19.824 1485.26 20.048C1485.16 20.268 1485.09 20.512 1485.05 20.78H1488.75ZM1491.08 24.5V18.224H1492.07V19.304C1492.3 18.9 1492.57 18.602 1492.9 18.41C1493.23 18.214 1493.63 18.116 1494.09 18.116V19.058C1493.75 19.07 1493.46 19.114 1493.21 19.19C1492.96 19.262 1492.75 19.378 1492.58 19.538C1492.41 19.694 1492.28 19.896 1492.2 20.144C1492.12 20.392 1492.07 20.696 1492.07 21.056V24.5H1491.08ZM1498.2 24.476C1497.93 24.564 1497.65 24.608 1497.35 24.608C1496.81 24.608 1496.4 24.474 1496.12 24.206C1495.84 23.934 1495.7 23.516 1495.7 22.952V19.064H1494.82V18.224H1495.7V17.048L1496.7 16.604V18.224H1498.13V19.064H1496.7V22.856C1496.7 22.988 1496.71 23.11 1496.73 23.222C1496.76 23.334 1496.81 23.43 1496.87 23.51C1496.93 23.59 1497.01 23.654 1497.11 23.702C1497.21 23.746 1497.33 23.768 1497.48 23.768C1497.7 23.768 1497.94 23.722 1498.2 23.63V24.476ZM1502.31 24.5V15.92H1505.06C1505.47 15.92 1505.85 15.984 1506.2 16.112C1506.54 16.236 1506.84 16.414 1507.09 16.646C1507.34 16.874 1507.53 17.148 1507.67 17.468C1507.8 17.784 1507.87 18.136 1507.87 18.524C1507.87 18.896 1507.8 19.236 1507.67 19.544C1507.53 19.848 1507.34 20.11 1507.1 20.33C1506.85 20.546 1506.56 20.716 1506.21 20.84C1505.87 20.96 1505.5 21.02 1505.09 21.02L1503.35 21.008V24.5H1502.31ZM1503.35 20.18H1505.06C1505.32 20.18 1505.56 20.138 1505.78 20.054C1505.99 19.97 1506.18 19.852 1506.33 19.7C1506.49 19.548 1506.61 19.366 1506.69 19.154C1506.78 18.938 1506.83 18.702 1506.83 18.446C1506.83 18.198 1506.78 17.97 1506.69 17.762C1506.61 17.554 1506.49 17.376 1506.33 17.228C1506.18 17.08 1505.99 16.966 1505.78 16.886C1505.56 16.802 1505.32 16.76 1505.06 16.76H1503.35V20.18ZM1509.04 24.5V18.224H1510.04V19.304C1510.26 18.9 1510.54 18.602 1510.87 18.41C1511.2 18.214 1511.59 18.116 1512.06 18.116V19.058C1511.72 19.07 1511.43 19.114 1511.17 19.19C1510.92 19.262 1510.71 19.378 1510.54 19.538C1510.38 19.694 1510.25 19.896 1510.17 20.144C1510.08 20.392 1510.04 20.696 1510.04 21.056V24.5H1509.04ZM1513.38 23.708C1513.11 23.424 1512.89 23.084 1512.74 22.688C1512.59 22.292 1512.52 21.854 1512.52 21.374C1512.52 20.894 1512.59 20.454 1512.74 20.054C1512.89 19.65 1513.11 19.306 1513.38 19.022C1513.65 18.734 1513.97 18.512 1514.35 18.356C1514.73 18.196 1515.14 18.116 1515.59 18.116C1516.05 18.116 1516.46 18.194 1516.83 18.35C1517.21 18.506 1517.53 18.726 1517.79 19.01C1518.06 19.294 1518.27 19.636 1518.41 20.036C1518.56 20.432 1518.63 20.87 1518.63 21.35C1518.63 21.83 1518.56 22.27 1518.41 22.67C1518.27 23.07 1518.06 23.414 1517.79 23.702C1517.53 23.986 1517.21 24.208 1516.83 24.368C1516.46 24.528 1516.05 24.608 1515.59 24.608C1515.14 24.608 1514.73 24.53 1514.35 24.374C1513.97 24.214 1513.65 23.992 1513.38 23.708ZM1514.12 23.09C1514.3 23.298 1514.52 23.46 1514.76 23.576C1515.02 23.688 1515.29 23.744 1515.59 23.744C1515.9 23.744 1516.17 23.688 1516.41 23.576C1516.66 23.46 1516.87 23.296 1517.05 23.084C1517.23 22.876 1517.36 22.626 1517.46 22.334C1517.55 22.042 1517.6 21.718 1517.6 21.362C1517.6 21.006 1517.55 20.68 1517.46 20.384C1517.36 20.088 1517.23 19.834 1517.05 19.622C1516.87 19.414 1516.66 19.252 1516.41 19.136C1516.17 19.016 1515.9 18.956 1515.59 18.956C1515.29 18.956 1515.02 19.016 1514.76 19.136C1514.52 19.252 1514.3 19.416 1514.12 19.628C1513.94 19.84 1513.8 20.094 1513.7 20.39C1513.6 20.682 1513.55 21.008 1513.55 21.368C1513.55 21.72 1513.6 22.042 1513.7 22.334C1513.8 22.626 1513.94 22.878 1514.12 23.09ZM1520.6 24.5V19.064H1519.73V18.224H1520.6V17.948C1520.6 17.592 1520.62 17.252 1520.65 16.928C1520.67 16.604 1520.75 16.32 1520.87 16.076C1520.99 15.828 1521.18 15.632 1521.43 15.488C1521.67 15.344 1522.02 15.272 1522.46 15.272C1522.6 15.272 1522.74 15.282 1522.88 15.302C1523.02 15.318 1523.16 15.348 1523.3 15.392L1522.99 16.16C1522.89 16.144 1522.81 16.132 1522.72 16.124C1522.64 16.116 1522.57 16.112 1522.5 16.112C1522.33 16.112 1522.19 16.138 1522.07 16.19C1521.96 16.242 1521.87 16.316 1521.8 16.412C1521.73 16.508 1521.68 16.622 1521.65 16.754C1521.62 16.882 1521.61 17.024 1521.61 17.18V18.224H1523.1V19.064H1521.61V24.5H1520.6ZM1524.68 24.5V18.236H1525.67V24.5H1524.68ZM1524.69 16.892C1524.63 16.832 1524.58 16.762 1524.55 16.682C1524.51 16.598 1524.5 16.51 1524.5 16.418C1524.5 16.326 1524.51 16.24 1524.55 16.16C1524.58 16.08 1524.63 16.01 1524.69 15.95C1524.75 15.89 1524.82 15.844 1524.9 15.812C1524.98 15.776 1525.07 15.758 1525.16 15.758C1525.25 15.758 1525.34 15.776 1525.42 15.812C1525.5 15.844 1525.57 15.89 1525.63 15.95C1525.69 16.01 1525.73 16.08 1525.76 16.16C1525.8 16.24 1525.82 16.326 1525.82 16.418C1525.82 16.51 1525.8 16.598 1525.76 16.682C1525.73 16.762 1525.69 16.832 1525.63 16.892C1525.57 16.948 1525.5 16.994 1525.42 17.03C1525.34 17.066 1525.25 17.084 1525.16 17.084C1525.07 17.084 1524.98 17.066 1524.9 17.03C1524.82 16.994 1524.75 16.948 1524.69 16.892ZM1527.77 24.5V15.428L1528.78 14.972V24.5H1527.77ZM1531.2 21.59C1531.2 21.918 1531.25 22.216 1531.35 22.484C1531.44 22.752 1531.58 22.98 1531.76 23.168C1531.94 23.356 1532.15 23.502 1532.4 23.606C1532.65 23.706 1532.93 23.756 1533.24 23.756C1533.4 23.756 1533.57 23.732 1533.73 23.684C1533.9 23.632 1534.06 23.558 1534.21 23.462C1534.36 23.366 1534.5 23.252 1534.62 23.12C1534.75 22.988 1534.85 22.84 1534.93 22.676L1535.87 23.066C1535.74 23.294 1535.58 23.504 1535.38 23.696C1535.19 23.884 1534.98 24.046 1534.75 24.182C1534.51 24.318 1534.26 24.424 1534 24.5C1533.74 24.572 1533.48 24.608 1533.22 24.608C1532.77 24.608 1532.35 24.536 1531.98 24.392C1531.6 24.248 1531.28 24.04 1531.02 23.768C1530.75 23.496 1530.55 23.168 1530.4 22.784C1530.25 22.396 1530.18 21.958 1530.18 21.47V21.038C1530.18 20.602 1530.25 20.206 1530.39 19.85C1530.53 19.49 1530.73 19.182 1530.99 18.926C1531.24 18.67 1531.55 18.472 1531.9 18.332C1532.26 18.188 1532.66 18.116 1533.1 18.116C1533.51 18.116 1533.9 18.186 1534.24 18.326C1534.59 18.466 1534.89 18.666 1535.14 18.926C1535.4 19.182 1535.59 19.49 1535.74 19.85C1535.88 20.206 1535.96 20.6 1535.97 21.032L1535.98 21.59H1531.2ZM1534.93 20.78C1534.93 20.512 1534.87 20.268 1534.78 20.048C1534.69 19.824 1534.56 19.632 1534.4 19.472C1534.24 19.312 1534.04 19.188 1533.82 19.1C1533.6 19.008 1533.36 18.962 1533.1 18.962C1532.85 18.962 1532.63 19.008 1532.41 19.1C1532.21 19.188 1532.02 19.312 1531.86 19.472C1531.69 19.632 1531.56 19.824 1531.45 20.048C1531.34 20.268 1531.27 20.512 1531.24 20.78H1534.93ZM1537.73 22.628C1537.85 22.996 1538.04 23.278 1538.32 23.474C1538.59 23.67 1538.91 23.768 1539.28 23.768C1539.44 23.768 1539.61 23.752 1539.77 23.72C1539.93 23.688 1540.08 23.634 1540.21 23.558C1540.33 23.482 1540.44 23.382 1540.52 23.258C1540.6 23.134 1540.64 22.978 1540.64 22.79C1540.64 22.598 1540.6 22.442 1540.51 22.322C1540.43 22.198 1540.32 22.096 1540.19 22.016C1540.05 21.932 1539.89 21.864 1539.71 21.812C1539.53 21.76 1539.35 21.71 1539.16 21.662C1538.92 21.606 1538.68 21.542 1538.45 21.47C1538.22 21.398 1538.01 21.3 1537.82 21.176C1537.64 21.048 1537.48 20.882 1537.36 20.678C1537.25 20.474 1537.19 20.208 1537.19 19.88C1537.19 19.604 1537.25 19.358 1537.36 19.142C1537.48 18.922 1537.64 18.736 1537.84 18.584C1538.03 18.432 1538.25 18.316 1538.49 18.236C1538.74 18.156 1538.99 18.116 1539.25 18.116C1539.48 18.116 1539.7 18.15 1539.92 18.218C1540.13 18.282 1540.33 18.376 1540.52 18.5C1540.7 18.624 1540.87 18.774 1541.02 18.95C1541.18 19.126 1541.31 19.322 1541.42 19.538L1540.66 19.886C1540.52 19.582 1540.32 19.35 1540.06 19.19C1539.8 19.03 1539.52 18.95 1539.21 18.95C1539.07 18.95 1538.94 18.968 1538.81 19.004C1538.68 19.036 1538.56 19.088 1538.46 19.16C1538.36 19.232 1538.27 19.326 1538.21 19.442C1538.15 19.554 1538.12 19.692 1538.12 19.856C1538.12 20.036 1538.16 20.186 1538.24 20.306C1538.32 20.422 1538.43 20.516 1538.56 20.588C1538.7 20.664 1538.85 20.726 1539.03 20.774C1539.21 20.822 1539.4 20.866 1539.59 20.906C1539.83 20.958 1540.07 21.018 1540.3 21.086C1540.54 21.15 1540.76 21.244 1540.94 21.368C1541.14 21.488 1541.29 21.65 1541.41 21.854C1541.53 22.058 1541.59 22.324 1541.59 22.652C1541.59 22.992 1541.53 23.284 1541.4 23.528C1541.27 23.772 1541.1 23.974 1540.89 24.134C1540.68 24.294 1540.44 24.414 1540.17 24.494C1539.9 24.57 1539.62 24.608 1539.32 24.608C1539.04 24.608 1538.78 24.572 1538.53 24.5C1538.28 24.432 1538.06 24.328 1537.85 24.188C1537.65 24.052 1537.48 23.882 1537.33 23.678C1537.17 23.474 1537.05 23.24 1536.96 22.976L1537.73 22.628Z" fill="black"/>
<path fill-rule="evenodd" clip-rule="evenodd" d="M1559 40V0H1560V40H1559Z" fill="#E9E9E9"/>
<path d="M1568 10C1568 8.89543 1568.9 8 1570 8H1590C1591.1 8 1592 8.89543 1592 10V30C1592 31.1046 1591.1 32 1590 32H1570C1568.9 32 1568 31.1046 1568 30V10Z" fill="white"/>
<path d="M1580.95 12.9375C1581.27 12.9375 1581.57 13.0481 1581.81 13.25C1582.05 13.4519 1582.21 13.7319 1582.26 14.04L1582.41 14.9629L1582.44 15.0508C1582.45 15.0788 1582.47 15.1052 1582.48 15.1299C1582.5 15.1547 1582.52 15.1773 1582.55 15.1973L1582.62 15.249L1582.62 15.25C1582.69 15.2855 1582.75 15.3229 1582.81 15.3584L1582.82 15.3613C1582.87 15.3941 1582.93 15.4151 1582.99 15.4219C1583.05 15.4286 1583.11 15.4209 1583.17 15.4004L1584.05 15.0713L1584.16 15.0352C1584.42 14.9624 1584.7 14.9715 1584.96 15.0635C1585.22 15.1555 1585.44 15.3249 1585.59 15.5469L1585.66 15.6455L1585.66 15.6484L1586.59 17.2881C1586.75 17.5588 1586.8 17.8763 1586.75 18.1836C1586.7 18.4524 1586.57 18.6984 1586.38 18.8887L1586.29 18.9668L1585.57 19.5615L1585.57 19.5625C1585.52 19.6024 1585.48 19.6529 1585.46 19.709C1585.43 19.765 1585.42 19.8257 1585.43 19.8867V20.1143C1585.42 20.175 1585.43 20.2353 1585.46 20.291C1585.48 20.346 1585.52 20.3951 1585.56 20.4346L1586.29 21.0332L1586.38 21.1113C1586.57 21.3016 1586.7 21.5476 1586.75 21.8164C1586.8 22.0854 1586.76 22.362 1586.65 22.6084L1586.59 22.7119L1585.65 24.3516C1585.49 24.622 1585.24 24.8282 1584.95 24.9336C1584.66 25.0389 1584.33 25.0372 1584.04 24.9277L1583.16 24.5967C1583.1 24.5769 1583.04 24.5705 1582.98 24.5771C1582.92 24.584 1582.86 24.6048 1582.81 24.6377L1582.8 24.6416C1582.74 24.6762 1582.68 24.7104 1582.63 24.7432C1582.62 24.7455 1582.62 24.7478 1582.61 24.75C1582.56 24.7785 1582.51 24.8189 1582.48 24.8682C1582.44 24.9175 1582.41 24.9748 1582.4 25.0352L1582.25 25.957C1582.2 26.2653 1582.04 26.545 1581.8 26.7471C1581.59 26.9238 1581.33 27.0315 1581.06 27.0557L1580.95 27.0605H1579.06C1578.75 27.0605 1578.45 26.9499 1578.21 26.748C1577.97 26.5462 1577.81 26.2661 1577.76 25.958L1577.6 25.0283C1577.59 24.9708 1577.57 24.9164 1577.53 24.8691C1577.5 24.8198 1577.45 24.7786 1577.4 24.75L1577.39 24.7461C1577.33 24.7126 1577.27 24.6778 1577.21 24.6416L1577.2 24.6377C1577.15 24.6048 1577.09 24.5849 1577.03 24.5781C1576.97 24.5714 1576.91 24.5776 1576.85 24.5977L1575.97 24.9277C1575.68 25.0374 1575.35 25.0397 1575.06 24.9346C1574.77 24.8294 1574.52 24.6237 1574.36 24.3535L1574.36 24.3525L1573.42 22.7119L1573.42 22.7109C1573.26 22.4403 1573.21 22.1237 1573.26 21.8164C1573.32 21.5088 1573.48 21.2308 1573.72 21.0322L1574.45 20.4346C1574.49 20.3949 1574.53 20.3462 1574.55 20.291C1574.58 20.2348 1574.59 20.1735 1574.59 20.1123C1574.59 20.1055 1574.59 20.0986 1574.59 20.0918V19.9053C1574.59 19.8988 1574.59 19.8923 1574.59 19.8857C1574.59 19.8249 1574.58 19.7639 1574.55 19.708C1574.53 19.6521 1574.49 19.6023 1574.45 19.5625L1573.72 18.9658L1573.72 18.9648C1573.48 18.7665 1573.32 18.4899 1573.26 18.1826C1573.21 17.8752 1573.26 17.5578 1573.42 17.2871L1574.36 15.6514C1574.52 15.3797 1574.77 15.1722 1575.06 15.0654C1575.35 14.9587 1575.68 14.9596 1575.97 15.0684L1575.97 15.0693L1576.85 15.3984C1576.91 15.4186 1576.97 15.4267 1577.03 15.4199C1577.09 15.4131 1577.15 15.3921 1577.2 15.3594L1577.21 15.3564C1577.27 15.3189 1577.33 15.2829 1577.38 15.2549C1577.39 15.2517 1577.39 15.2491 1577.4 15.2461C1577.45 15.2178 1577.5 15.177 1577.54 15.1279C1577.57 15.0789 1577.6 15.0219 1577.61 14.9619L1577.76 14.0537C1577.76 14.0492 1577.76 14.0445 1577.76 14.04C1577.81 13.7319 1577.97 13.4519 1578.21 13.25C1578.45 13.0481 1578.75 12.9375 1579.06 12.9375H1580.95ZM1579.06 13.9375C1578.99 13.9375 1578.91 13.9647 1578.86 14.0137C1578.8 14.0603 1578.76 14.1238 1578.75 14.1943C1578.75 14.1972 1578.75 14.2003 1578.75 14.2031L1578.59 15.1377L1578.59 15.1484C1578.55 15.3568 1578.47 15.5533 1578.34 15.7236C1578.22 15.8887 1578.06 16.0234 1577.88 16.1211L1577.88 16.1221C1577.82 16.1544 1577.78 16.1788 1577.74 16.2051L1577.74 16.2061C1577.56 16.3193 1577.35 16.3906 1577.14 16.4141C1576.93 16.4376 1576.72 16.4119 1576.52 16.3408L1576.51 16.3379L1575.62 16.0059C1575.55 15.9802 1575.47 15.9803 1575.4 16.0059C1575.33 16.0318 1575.27 16.0815 1575.23 16.1475L1575.23 16.1494L1574.28 17.7871C1574.25 17.8527 1574.23 17.9295 1574.25 18.0039C1574.26 18.0599 1574.28 18.1116 1574.32 18.1543L1574.36 18.1934L1575.09 18.7979L1575.1 18.8047L1575.21 18.915C1575.32 19.0308 1575.41 19.1643 1575.47 19.3096C1575.55 19.4974 1575.59 19.7008 1575.59 19.9053V20.0918C1575.59 20.2965 1575.55 20.5004 1575.47 20.6885C1575.39 20.8827 1575.26 21.0549 1575.1 21.1934L1575.09 21.2012L1574.36 21.8047C1574.3 21.8529 1574.26 21.9204 1574.25 21.9951C1574.24 22.0511 1574.24 22.1083 1574.26 22.1611L1574.28 22.2129L1575.23 23.8525L1575.26 23.8984C1575.3 23.9415 1575.34 23.974 1575.4 23.9932C1575.47 24.0187 1575.55 24.0188 1575.62 23.9922L1576.5 23.6592L1576.51 23.6562C1576.71 23.5852 1576.93 23.5605 1577.14 23.584C1577.35 23.6072 1577.55 23.6772 1577.73 23.7881C1577.77 23.8161 1577.82 23.8431 1577.87 23.8691C1578.05 23.9675 1578.21 24.1054 1578.34 24.2734C1578.43 24.4012 1578.5 24.5441 1578.55 24.6953L1578.59 24.8486L1578.59 24.8604L1578.75 25.793C1578.76 25.8677 1578.8 25.9354 1578.86 25.9844C1578.91 26.0334 1578.99 26.0605 1579.06 26.0605H1580.95C1581.02 26.0605 1581.1 26.0334 1581.15 25.9844C1581.21 25.9353 1581.25 25.8677 1581.26 25.793L1581.42 24.8594L1581.42 24.8467C1581.46 24.639 1581.55 24.4424 1581.67 24.2725C1581.8 24.1066 1581.95 23.97 1582.14 23.8721L1582.28 23.7861C1582.46 23.6757 1582.66 23.6062 1582.87 23.583C1583.03 23.5654 1583.19 23.5747 1583.34 23.6104L1583.5 23.6553L1583.5 23.6582L1584.39 23.9912L1584.45 24.0059C1584.5 24.016 1584.56 24.0114 1584.61 23.9922C1584.68 23.9666 1584.74 23.9163 1584.78 23.8506L1585.73 22.2129C1585.77 22.1471 1585.78 22.0697 1585.77 21.9951C1585.75 21.9206 1585.71 21.8538 1585.65 21.8057L1584.92 21.2012L1584.91 21.1943C1584.75 21.0563 1584.62 20.8832 1584.54 20.6895C1584.46 20.4954 1584.42 20.2846 1584.43 20.0732V19.9072C1584.42 19.7024 1584.46 19.4987 1584.54 19.3105C1584.63 19.116 1584.75 18.943 1584.91 18.8047L1584.92 18.7979L1585.65 18.1953C1585.71 18.1472 1585.75 18.0794 1585.77 18.0049C1585.78 17.9303 1585.77 17.8529 1585.73 17.7871L1584.79 16.1445C1584.75 16.0804 1584.69 16.0311 1584.62 16.0059C1584.55 15.9804 1584.47 15.9803 1584.4 16.0068L1584.4 16.0078L1583.51 16.3398L1583.5 16.3428C1583.3 16.414 1583.09 16.4395 1582.88 16.416C1582.67 16.3927 1582.47 16.3219 1582.29 16.21L1582.16 16.1328C1581.97 16.0344 1581.81 15.8949 1581.68 15.7256C1581.55 15.5556 1581.47 15.3592 1581.43 15.1514L1581.43 15.1396L1581.27 14.2051C1581.26 14.1303 1581.22 14.0627 1581.16 14.0137C1581.1 13.9647 1581.03 13.9375 1580.95 13.9375H1579.06Z" fill="black"/>
<path d="M1581.4 20.0004C1581.4 19.6295 1581.26 19.2745 1580.99 19.0131C1580.73 18.7514 1580.38 18.604 1580.01 18.6039C1579.73 18.6038 1579.46 18.6859 1579.23 18.8392C1579 18.9925 1578.82 19.2102 1578.72 19.4652C1578.61 19.7202 1578.58 20.001 1578.64 20.2718C1578.69 20.5425 1578.82 20.7914 1579.02 20.9867C1579.21 21.1819 1579.46 21.3155 1579.73 21.3695C1580 21.4234 1580.29 21.396 1580.54 21.2904C1580.8 21.1848 1581.01 21.0052 1581.17 20.7758C1581.32 20.5462 1581.4 20.2764 1581.4 20.0004ZM1582.4 20.0004C1582.4 20.4742 1582.26 20.9375 1582 21.3314C1581.74 21.7255 1581.36 22.0329 1580.92 22.2142C1580.49 22.3954 1580 22.4424 1579.54 22.35C1579.07 22.2574 1578.65 22.0289 1578.31 21.6937C1577.98 21.3586 1577.75 20.9318 1577.66 20.4672C1577.56 20.0023 1577.61 19.5202 1577.79 19.0824C1577.97 18.6447 1578.28 18.2703 1578.68 18.0072C1579.07 17.744 1579.53 17.6037 1580.01 17.6039C1580.64 17.604 1581.25 17.8568 1581.7 18.306C1582.15 18.7558 1582.4 19.3657 1582.4 20.0004Z" fill="black"/>
<defs>
<clipPath id="clip0_993_231305">
<rect width="14" height="14" fill="white" transform="translate(1406 13.5)"/>
</clipPath>
</defs>
</svg>
